<?xml version="1.0" encoding="UTF-8"?>
<!DOCTYPE svg PUBLIC "-//W3C//DTD SVG 1.1//EN" "http://www.w3.org/Graphics/SVG/1.1/DTD/svg11.dtd">
<svg xmlns="http://www.w3.org/2000/svg" version="1.1" width="1050px" height="750px" style="shape-rendering:geometricPrecision; text-rendering:geometricPrecision; image-rendering:optimizeQuality; fill-rule:evenodd; clip-rule:evenodd" xmlns:xlink="http://www.w3.org/1999/xlink">
<g><path style="opacity:0.877" fill="#e2bfbf" d="M 999.5,99.5 C 839.833,99.5 680.167,99.5 520.5,99.5C 520.5,138.5 520.5,177.5 520.5,216.5C 519.501,177.337 519.168,138.004 519.5,98.5C 679.668,98.167 839.668,98.5003 999.5,99.5 Z"/></g>
<g><path style="opacity:1" fill="#d4f7f6" d="M 49.5,99.5 C 201.5,99.5 353.5,99.5 505.5,99.5C 505.5,245.5 505.5,391.5 505.5,537.5C 353.5,538.814 201.5,538.814 49.5,537.5C 49.5,391.5 49.5,245.5 49.5,99.5 Z"/></g>
<g><path style="opacity:1" fill="#900403" d="M 999.5,99.5 C 999.5,138.5 999.5,177.5 999.5,216.5C 839.833,216.5 680.167,216.5 520.5,216.5C 520.5,177.5 520.5,138.5 520.5,99.5C 680.167,99.5 839.833,99.5 999.5,99.5 Z"/></g>
<g><path style="opacity:1" fill="#f9f1f0" d="M 968.5,118.5 C 971.5,118.5 974.5,118.5 977.5,118.5C 977.5,145.5 977.5,172.5 977.5,199.5C 974.5,199.5 971.5,199.5 968.5,199.5C 968.5,172.5 968.5,145.5 968.5,118.5 Z"/></g>
<g><path style="opacity:1" fill="#fcf7f7" d="M 541.5,122.5 C 549.84,122.334 558.173,122.5 566.5,123C 570.02,123.504 572.52,125.337 574,128.5C 576,135.5 576,142.5 574,149.5C 572.786,151.049 571.286,152.215 569.5,153C 572.745,154.981 574.911,157.814 576,161.5C 579.757,188.404 568.424,198.404 542,191.5C 541.5,168.502 541.333,145.502 541.5,122.5 Z"/></g>
<g><path style="opacity:1" fill="#fdfafa" d="M 618.5,187.5 C 618.5,188.833 618.5,190.167 618.5,191.5C 614.167,191.5 609.833,191.5 605.5,191.5C 605.5,187.833 605.5,184.167 605.5,180.5C 602.5,180.5 599.5,180.5 596.5,180.5C 596.793,184.437 596.46,188.27 595.5,192C 591.179,192.499 586.846,192.666 582.5,192.5C 584.335,169.152 586.335,145.819 588.5,122.5C 596.939,121.884 605.106,122.551 613,124.5C 614.91,145.499 616.743,166.499 618.5,187.5 Z"/></g>
<g><path style="opacity:1" fill="#fcf8f8" d="M 641.5,162.5 C 641.291,161.078 640.791,159.745 640,158.5C 639.5,169.495 639.333,180.495 639.5,191.5C 635.167,191.5 630.833,191.5 626.5,191.5C 626.5,168.5 626.5,145.5 626.5,122.5C 631.5,122.5 636.5,122.5 641.5,122.5C 642.882,132.244 644.715,141.91 647,151.5C 647.5,141.839 647.666,132.172 647.5,122.5C 652.167,122.5 656.833,122.5 661.5,122.5C 661.667,145.502 661.5,168.502 661,191.5C 656.333,192.833 651.667,192.833 647,191.5C 644.715,181.907 642.881,172.24 641.5,162.5 Z"/></g>
<g><path style="opacity:1" fill="#fdfafa" d="M 690.5,164.5 C 689.791,163.596 688.791,163.263 687.5,163.5C 687.5,159.833 687.5,156.167 687.5,152.5C 692.833,152.5 698.167,152.5 703.5,152.5C 704.496,165.656 704.829,178.99 704.5,192.5C 702.167,192.5 699.833,192.5 697.5,192.5C 697.301,186.559 695.634,186.059 692.5,191C 682.637,195.825 675.47,193.325 671,183.5C 669.41,167.212 669.077,150.879 670,134.5C 670.996,128.841 674.162,125.007 679.5,123C 697.592,120.256 705.926,128.089 704.5,146.5C 699.833,146.5 695.167,146.5 690.5,146.5C 690.665,143.15 690.498,139.817 690,136.5C 688.186,135.24 686.353,135.24 684.5,136.5C 683.85,143.453 683.517,150.453 683.5,157.5C 683.367,164.934 683.867,172.267 685,179.5C 687.454,181.013 689.121,180.346 690,177.5C 690.499,173.179 690.666,168.846 690.5,164.5 Z"/></g>
<g><path style="opacity:1" fill="#fdfafa" d="M 726.5,122.5 C 726.5,141.833 726.5,161.167 726.5,180.5C 731.167,180.5 735.833,180.5 740.5,180.5C 741.821,184.233 741.821,188.066 740.5,192C 731.173,192.5 721.839,192.666 712.5,192.5C 712.5,169.167 712.5,145.833 712.5,122.5C 717.167,122.5 721.833,122.5 726.5,122.5 Z"/></g>
<g><path style="opacity:1" fill="#b04b4a" d="M 726.5,122.5 C 727.497,141.326 727.83,160.326 727.5,179.5C 732.032,179.182 736.366,179.515 740.5,180.5C 735.833,180.5 731.167,180.5 726.5,180.5C 726.5,161.167 726.5,141.833 726.5,122.5 Z"/></g>
<g><path style="opacity:1" fill="#fdfbfb" d="M 782.5,188.5 C 782.5,189.5 782.5,190.5 782.5,191.5C 778.167,191.5 773.833,191.5 769.5,191.5C 769.665,188.15 769.498,184.817 769,181.5C 766.281,180.556 763.448,180.223 760.5,180.5C 760.448,184.198 760.114,187.865 759.5,191.5C 755.167,191.5 750.833,191.5 746.5,191.5C 746.5,190.5 746.5,189.5 746.5,188.5C 748.368,166.487 750.368,144.487 752.5,122.5C 760.5,122.5 768.5,122.5 776.5,122.5C 778.754,144.468 780.754,166.468 782.5,188.5 Z"/></g>
<g><path style="opacity:1" fill="#fdfbfb" d="M 790.5,122.5 C 819.464,116.131 830.798,127.464 824.5,156.5C 824.333,164.833 824.167,173.167 824,181.5C 822.273,187.893 818.106,191.393 811.5,192C 804.508,192.5 797.508,192.666 790.5,192.5C 790.5,169.167 790.5,145.833 790.5,122.5 Z"/></g>
<g><path style="opacity:1" fill="#fcf8f8" d="M 833.5,122.5 C 842.833,122.5 852.167,122.5 861.5,122.5C 861.5,126.833 861.5,131.167 861.5,135.5C 857.167,135.5 852.833,135.5 848.5,135.5C 848.5,139.833 848.5,144.167 848.5,148.5C 852.767,148.203 856.934,148.536 861,149.5C 861.499,153.821 861.666,158.154 861.5,162.5C 857.167,162.5 852.833,162.5 848.5,162.5C 848.5,167.833 848.5,173.167 848.5,178.5C 853.167,178.5 857.833,178.5 862.5,178.5C 862.5,183.167 862.5,187.833 862.5,192.5C 852.833,192.5 843.167,192.5 833.5,192.5C 833.5,169.167 833.5,145.833 833.5,122.5 Z"/></g>
<g><path style="opacity:1" fill="#fcf9f9" d="M 878.5,122.5 C 895.29,119.629 903.29,126.629 902.5,143.5C 897.833,143.5 893.167,143.5 888.5,143.5C 888.663,141.143 888.497,138.81 888,136.5C 883.154,134.677 881.488,136.344 883,141.5C 887.387,146.377 892.054,151.044 897,155.5C 899.062,157.901 900.729,160.567 902,163.5C 902.667,169.5 902.667,175.5 902,181.5C 898.548,191.896 891.382,195.729 880.5,193C 875,191.5 871.5,188 870,182.5C 868.729,177.246 868.229,171.913 868.5,166.5C 873.167,166.5 877.833,166.5 882.5,166.5C 882.133,170.967 882.633,175.3 884,179.5C 885.333,180.833 886.667,180.833 888,179.5C 888.667,175.833 888.667,172.167 888,168.5C 883.033,162.531 877.699,156.865 872,151.5C 867.404,143.516 867.404,135.516 872,127.5C 873.965,125.45 876.132,123.783 878.5,122.5 Z"/></g>
<g><path style="opacity:1" fill="#dfb5b5" d="M 911.5,122.5 C 911.5,145.5 911.5,168.5 911.5,191.5C 915.833,191.5 920.167,191.5 924.5,191.5C 920.03,192.486 915.363,192.819 910.5,192.5C 910.169,168.994 910.502,145.661 911.5,122.5 Z"/></g>
<g><path style="opacity:1" fill="#fefcfc" d="M 911.5,122.5 C 915.833,122.5 920.167,122.5 924.5,122.5C 924.5,130.5 924.5,138.5 924.5,146.5C 926.607,147.468 928.941,147.802 931.5,147.5C 931.5,139.167 931.5,130.833 931.5,122.5C 935.833,122.5 940.167,122.5 944.5,122.5C 944.5,145.5 944.5,168.5 944.5,191.5C 940.167,191.5 935.833,191.5 931.5,191.5C 930.506,181.347 930.172,171.014 930.5,160.5C 928.5,160.5 926.5,160.5 924.5,160.5C 924.5,170.833 924.5,181.167 924.5,191.5C 920.167,191.5 915.833,191.5 911.5,191.5C 911.5,168.5 911.5,145.5 911.5,122.5 Z"/></g>
<g><path style="opacity:1" fill="#c88282" d="M 931.5,122.5 C 931.5,130.833 931.5,139.167 931.5,147.5C 928.941,147.802 926.607,147.468 924.5,146.5C 926.5,146.5 928.5,146.5 930.5,146.5C 930.174,138.316 930.508,130.316 931.5,122.5 Z"/></g>
<g><path style="opacity:1" fill="#dfb5b5" d="M 944.5,122.5 C 945.498,145.661 945.831,168.994 945.5,192.5C 940.637,192.819 935.97,192.486 931.5,191.5C 935.833,191.5 940.167,191.5 944.5,191.5C 944.5,168.5 944.5,145.5 944.5,122.5 Z"/></g>
<g><path style="opacity:1" fill="#971b14" d="M 555.5,132.5 C 560.809,132.491 562.809,135.158 561.5,140.5C 562.809,145.842 560.809,148.509 555.5,148.5C 555.5,143.167 555.5,137.833 555.5,132.5 Z"/></g>
<g><path style="opacity:1" fill="#94110c" d="M 804.5,134.5 C 806.262,134.357 807.929,134.691 809.5,135.5C 810.833,149.833 810.833,164.167 809.5,178.5C 807.929,179.309 806.262,179.643 804.5,179.5C 804.5,164.5 804.5,149.5 804.5,134.5 Z"/></g>
<g><path style="opacity:1" fill="#992017" d="M 600.5,138.5 C 602.108,148.63 603.108,158.963 603.5,169.5C 601.5,169.5 599.5,169.5 597.5,169.5C 598.17,159.117 599.17,148.784 600.5,138.5 Z"/></g>
<g><path style="opacity:1" fill="#9a2119" d="M 763.5,139.5 C 764.765,140.514 765.431,142.014 765.5,144C 766.498,152.479 767.165,160.979 767.5,169.5C 765.5,169.5 763.5,169.5 761.5,169.5C 762.356,159.515 763.023,149.515 763.5,139.5 Z"/></g>
<g><path style="opacity:1" fill="#d59e9e" d="M 703.5,152.5 C 698.167,152.5 692.833,152.5 687.5,152.5C 687.5,156.167 687.5,159.833 687.5,163.5C 688.791,163.263 689.791,163.596 690.5,164.5C 689.167,164.5 687.833,164.5 686.5,164.5C 686.5,160.167 686.5,155.833 686.5,151.5C 692.358,151.178 698.025,151.511 703.5,152.5 Z"/></g>
<g><path style="opacity:1" fill="#971b14" d="M 555.5,159.5 C 561.929,159.336 564.262,162.503 562.5,169C 564.193,175.493 561.86,178.993 555.5,179.5C 555.5,172.833 555.5,166.167 555.5,159.5 Z"/></g>
<g><path style="opacity:1" fill="#dcafae" d="M 641.5,162.5 C 640.506,172.319 640.173,182.319 640.5,192.5C 635.637,192.819 630.97,192.486 626.5,191.5C 630.833,191.5 635.167,191.5 639.5,191.5C 639.333,180.495 639.5,169.495 640,158.5C 640.791,159.745 641.291,161.078 641.5,162.5 Z"/></g>
<g><path style="opacity:1" fill="#123751" d="M 189.5,167.5 C 201.764,171.979 213.764,177.146 225.5,183C 230.868,190.431 230.535,197.764 224.5,205C 219.437,205.248 214.437,205.915 209.5,207C 203.989,213.343 198.323,219.509 192.5,225.5C 186.515,222.53 182.848,217.863 181.5,211.5C 183.323,196.551 185.99,181.885 189.5,167.5 Z"/></g>
<g><path style="opacity:1" fill="#d4f1f7" d="M 221.5,190.5 C 215.891,191.779 210.225,193.279 204.5,195C 200.919,199.252 196.752,202.752 192,205.5C 191.517,204.552 191.351,203.552 191.5,202.5C 192.501,194.497 193.501,186.497 194.5,178.5C 203.612,182.222 212.612,186.222 221.5,190.5 Z"/></g>
<g><path style="opacity:1" fill="#c67f7f" d="M 618.5,187.5 C 619.451,188.919 619.784,190.585 619.5,192.5C 614.637,192.819 609.97,192.486 605.5,191.5C 609.833,191.5 614.167,191.5 618.5,191.5C 618.5,190.167 618.5,188.833 618.5,187.5 Z"/></g>
<g><path style="opacity:1" fill="#c37575" d="M 746.5,188.5 C 746.5,189.5 746.5,190.5 746.5,191.5C 750.833,191.5 755.167,191.5 759.5,191.5C 755.03,192.486 750.363,192.819 745.5,192.5C 745.232,190.901 745.566,189.568 746.5,188.5 Z"/></g>
<g><path style="opacity:1" fill="#c67d7d" d="M 782.5,188.5 C 783.434,189.568 783.768,190.901 783.5,192.5C 778.637,192.819 773.97,192.486 769.5,191.5C 773.833,191.5 778.167,191.5 782.5,191.5C 782.5,190.5 782.5,189.5 782.5,188.5 Z"/></g>
<g><path style="opacity:1" fill="#1790ca" d="M 153.5,193.5 C 161.576,194.009 163.576,197.843 159.5,205C 152.026,207.508 148.859,205.008 150,197.5C 151.376,196.295 152.542,194.962 153.5,193.5 Z"/></g>
<g><path style="opacity:1" fill="#50b9db" d="M 221.5,190.5 C 222.97,192.151 224.303,193.985 225.5,196C 225.167,196.333 224.833,196.667 224.5,197C 218.205,198.551 211.871,199.884 205.5,201C 201.215,205.74 197.048,210.573 193,215.5C 190.694,214.863 189.527,213.363 189.5,211C 189.912,207.973 190.579,205.14 191.5,202.5C 191.351,203.552 191.517,204.552 192,205.5C 196.752,202.752 200.919,199.252 204.5,195C 210.225,193.279 215.891,191.779 221.5,190.5 Z"/></g>
<g><path style="opacity:1" fill="#103550" d="M 345.5,526.5 C 348.484,527.748 351.318,529.415 354,531.5C 354.322,533.689 353.822,535.689 352.5,537.5C 294.167,537.5 235.833,537.5 177.5,537.5C 174.138,535.118 173.805,532.451 176.5,529.5C 178.89,529.087 181.223,528.421 183.5,527.5C 172.996,521.843 166.329,513.177 163.5,501.5C 132.985,505.533 114.818,492.2 109,461.5C 107.448,447.481 110.448,434.481 118,422.5C 122.917,414.33 128.084,406.33 133.5,398.5C 130.893,397.682 128.226,397.182 125.5,397C 116.414,390.585 107.914,383.418 100,375.5C 97.0196,363.285 95.0196,350.952 94,338.5C 105.09,337.347 116.257,337.18 127.5,338C 133.441,344.608 138.608,351.775 143,359.5C 143.137,367.492 141.97,375.326 139.5,383C 139.833,383.5 140.167,384 140.5,384.5C 142.6,382.384 144.933,380.717 147.5,379.5C 152.698,381.013 157.865,382.679 163,384.5C 144.716,327.799 156.883,278.299 199.5,236C 238.817,203.847 283.15,194.514 332.5,208C 342.939,212.386 352.939,217.553 362.5,223.5C 361.833,223.833 361.167,224.167 360.5,224.5C 358.547,223.844 356.547,223.511 354.5,223.5C 344.516,220.837 334.516,218.17 324.5,215.5C 310.274,211.258 295.941,209.925 281.5,211.5C 257.795,212.844 236.461,220.511 217.5,234.5C 214.545,236.122 211.878,238.122 209.5,240.5C 196.901,251.101 186.901,263.767 179.5,278.5C 176.185,283.796 173.352,289.462 171,295.5C 169.316,299.716 168.149,304.049 167.5,308.5C 165.368,316.899 164.368,325.565 164.5,334.5C 164.76,344.248 165.76,353.914 167.5,363.5C 168.5,366.167 169.5,368.833 170.5,371.5C 172.495,377.656 175.162,383.489 178.5,389C 183.036,390.379 187.703,390.879 192.5,390.5C 195.385,390.806 198.052,390.473 200.5,389.5C 202.805,391.052 205.305,392.385 208,393.5C 209.18,400.948 210.68,408.282 212.5,415.5C 211.427,416.251 211.26,417.251 212,418.5C 212.977,419.774 213.811,419.774 214.5,418.5C 222.702,417.738 229.536,420.405 235,426.5C 238.539,419.25 242.706,412.417 247.5,406C 255.116,404.182 262.783,402.682 270.5,401.5C 272.288,401.215 273.955,401.548 275.5,402.5C 276.513,404.527 277.513,406.527 278.5,408.5C 284.712,417.926 288.379,428.259 289.5,439.5C 294.571,438.31 299.571,436.81 304.5,435C 306.833,434.333 309.167,434.333 311.5,435C 314.787,438.293 317.287,442.127 319,446.5C 320.574,447.848 322.407,448.514 324.5,448.5C 332.956,446.795 341.289,444.462 349.5,441.5C 348.01,435.557 347.177,429.557 347,423.5C 350.167,419 353.333,414.5 356.5,410C 359.895,409.77 363.061,410.603 366,412.5C 366.383,411.944 366.883,411.611 367.5,411.5C 371.988,415.386 377.321,417.22 383.5,417C 386.325,414.857 388.325,412.19 389.5,409C 389.128,406.291 387.628,404.457 385,403.5C 385.096,401.619 384.929,399.953 384.5,398.5C 385.453,395.299 386.786,392.299 388.5,389.5C 389.461,387.735 389.795,385.735 389.5,383.5C 390.824,380.864 390.824,378.198 389.5,375.5C 390.18,374.14 390.847,372.807 391.5,371.5C 394.854,371.253 397.854,370.253 400.5,368.5C 401.5,368.5 402.5,368.5 403.5,368.5C 405.179,368.715 406.179,368.048 406.5,366.5C 407.708,367.234 409.041,367.567 410.5,367.5C 413.262,356.999 414.762,346.332 415,335.5C 411.583,342.675 407.416,349.341 402.5,355.5C 401.817,355.137 401.15,354.804 400.5,354.5C 394.483,337.739 391.983,320.405 393,302.5C 394.222,297.075 396.222,292.075 399,287.5C 401.974,288.118 404.808,289.118 407.5,290.5C 407.643,284.092 405.476,278.425 401,273.5C 397.934,275.409 394.768,277.076 391.5,278.5C 386.926,271.024 382.092,263.69 377,256.5C 376.333,255.167 376.333,253.833 377,252.5C 378.741,249.691 379.908,246.691 380.5,243.5C 381.588,241.484 382.588,239.317 383.5,237C 378.23,229.981 375.73,222.148 376,213.5C 376.956,212.421 377.789,211.255 378.5,210C 374.131,207.143 370.131,203.81 366.5,200C 361.835,200.401 357.335,201.568 353,203.5C 350.179,199.343 347.012,195.509 343.5,192C 330.576,188.949 317.576,186.282 304.5,184C 287,182.701 269.666,183.868 252.5,187.5C 247.222,187.571 245.555,185.238 247.5,180.5C 254.261,178.032 261.261,176.532 268.5,176C 284.517,175.488 300.517,175.488 316.5,176C 323.149,172.227 330.149,169.227 337.5,167C 354.536,163.158 371.536,159.158 388.5,155C 391.249,153.877 393.749,152.377 396,150.5C 396.333,146.833 396.667,143.167 397,139.5C 405.469,130.03 414.303,120.863 423.5,112C 432.985,107.833 441.651,109.167 449.5,116C 462.299,126.465 474.133,137.965 485,150.5C 490.028,158.617 489.362,166.283 483,173.5C 476.52,181.614 469.687,189.447 462.5,197C 458.827,199.147 455.327,198.981 452,196.5C 448.078,200 445.412,204.333 444,209.5C 443.912,223.854 444.579,238.187 446,252.5C 448.539,270.642 450.705,288.809 452.5,307C 451.942,323.85 449.275,340.35 444.5,356.5C 442.143,356.663 439.81,356.497 437.5,356C 434.365,349.559 430.365,343.725 425.5,338.5C 423.374,347.795 421.374,357.128 419.5,366.5C 421.566,367.906 423.732,369.24 426,370.5C 426.952,379.49 427.285,388.49 427,397.5C 422.554,401.946 418.054,406.446 413.5,411C 409.958,411.851 406.625,411.351 403.5,409.5C 402.5,410 401.5,410.5 400.5,411C 394.206,418.962 387.54,426.629 380.5,434C 386.46,432.575 392.46,430.908 398.5,429C 401.833,428.333 405.167,428.333 408.5,429C 416.249,432.139 423.916,435.472 431.5,439C 432.451,439.718 432.617,440.551 432,441.5C 421.604,449.53 409.937,454.863 397,457.5C 393.407,457.06 389.907,456.227 386.5,455C 378.713,451.356 370.88,447.856 363,444.5C 356.482,447.508 349.982,450.675 343.5,454C 327.709,477.748 312.042,501.581 296.5,525.5C 312.82,526.499 329.153,526.833 345.5,526.5 Z"/></g>
<g><path style="opacity:1" fill="#b8eefa" d="M 425.5,187.5 C 427.167,188.5 428.5,189.833 429.5,191.5C 429.44,192.043 429.107,192.376 428.5,192.5C 427.084,190.861 425.417,190.027 423.5,190C 420.982,193.868 419.149,198.035 418,202.5C 416.19,219.651 417.023,236.651 420.5,253.5C 419.5,252.167 418.5,252.167 417.5,253.5C 417.5,253.167 417.5,252.833 417.5,252.5C 417.768,250.901 417.434,249.568 416.5,248.5C 416.611,247.883 416.944,247.383 417.5,247C 416.167,246.333 414.833,246.333 413.5,247C 408.32,250.09 402.987,252.924 397.5,255.5C 395.337,255.255 393.67,254.255 392.5,252.5C 396.747,244.338 401.247,236.338 406,228.5C 405.818,212.566 409.984,197.9 418.5,184.5C 420.246,186.854 422.579,187.854 425.5,187.5 Z"/></g>
<g><path style="opacity:1" fill="#0868a6" d="M 452.5,166.5 C 456.167,169.5 459.5,172.833 462.5,176.5C 460.833,178.5 459.167,180.5 457.5,182.5C 454.471,179.141 451.471,175.808 448.5,172.5C 450.252,170.754 451.585,168.754 452.5,166.5 Z"/></g>
<g><path style="opacity:1" fill="#ebf6f8" d="M 407.5,150.5 C 407.5,152.167 407.5,153.833 407.5,155.5C 405.844,157.46 404.177,159.46 402.5,161.5C 400.24,160.114 399.406,160.781 400,163.5C 409.301,170.634 417.801,178.634 425.5,187.5C 422.579,187.854 420.246,186.854 418.5,184.5C 409.984,197.9 405.818,212.566 406,228.5C 401.247,236.338 396.747,244.338 392.5,252.5C 393.67,254.255 395.337,255.255 397.5,255.5C 402.987,252.924 408.32,250.09 413.5,247C 414.833,246.333 416.167,246.333 417.5,247C 416.944,247.383 416.611,247.883 416.5,248.5C 408.299,253.435 400.632,259.101 393.5,265.5C 390.005,262.012 387.672,257.846 386.5,253C 388.585,245.163 392.252,238.163 397.5,232C 394.174,231.828 390.841,231.995 387.5,232.5C 386.326,227.311 384.993,222.144 383.5,217C 384.828,212.511 386.828,208.344 389.5,204.5C 384.3,202.936 378.966,201.769 373.5,201C 370.894,199.062 369.061,196.562 368,193.5C 367.275,192.941 366.442,192.608 365.5,192.5C 361.839,193.832 358.172,195.165 354.5,196.5C 353.522,196.023 352.689,195.357 352,194.5C 351.291,191.464 350.124,188.631 348.5,186C 341.448,184.589 334.448,182.923 327.5,181C 330.964,178.953 334.63,177.287 338.5,176C 355.272,172.409 371.938,168.409 388.5,164C 392.5,162 396.5,160 400.5,158C 402.333,155.002 404.666,152.502 407.5,150.5 Z"/></g>
<g><path style="opacity:1" fill="#99e5f9" d="M 393.5,165.5 C 401.934,165.641 402.6,168.141 395.5,173C 383.058,179.202 370.058,183.702 356.5,186.5C 354.076,185.262 351.742,183.762 349.5,182C 346.711,181.759 344.044,181.092 341.5,180C 354.448,176.847 367.448,173.847 380.5,171C 384.923,169.115 389.256,167.281 393.5,165.5 Z"/></g>
<g><path style="opacity:1" fill="#5ec6e7" d="M 421.5,163.5 C 428.159,169.101 434.159,175.435 439.5,182.5C 438.408,185.024 437.074,187.357 435.5,189.5C 431.88,187.547 428.88,184.881 426.5,181.5C 426.665,178.15 426.498,174.817 426,171.5C 424.644,168.671 423.144,166.004 421.5,163.5 Z"/></g>
<g><path style="opacity:1" fill="#1984bd" d="M 407.5,150.5 C 421.581,160.646 435.081,171.646 448,183.5C 448.667,184.167 448.667,184.833 448,185.5C 444.934,188.396 442.101,191.396 439.5,194.5C 438.167,192.833 436.833,191.167 435.5,189.5C 437.074,187.357 438.408,185.024 439.5,182.5C 434.159,175.435 428.159,169.101 421.5,163.5C 418.049,158.718 413.383,156.051 407.5,155.5C 407.5,153.833 407.5,152.167 407.5,150.5 Z"/></g>
<g><path style="opacity:1" fill="#193e59" d="M 402.5,161.5 C 402.842,162.338 403.508,162.672 404.5,162.5C 408.534,166.536 412.868,170.202 417.5,173.5C 419.9,176.903 422.9,179.57 426.5,181.5C 428.88,184.881 431.88,187.547 435.5,189.5C 436.833,191.167 438.167,192.833 439.5,194.5C 438.796,196.344 437.463,196.844 435.5,196C 433.886,193.873 431.886,192.373 429.5,191.5C 428.5,189.833 427.167,188.5 425.5,187.5C 417.801,178.634 409.301,170.634 400,163.5C 399.406,160.781 400.24,160.114 402.5,161.5 Z"/></g>
<g><path style="opacity:1" fill="#33afd7" d="M 436.5,151.5 C 442.463,155.795 447.796,160.795 452.5,166.5C 451.585,168.754 450.252,170.754 448.5,172.5C 445.568,171.2 443.234,169.2 441.5,166.5C 438.558,161.889 434.891,157.889 430.5,154.5C 431.281,150.776 433.281,149.776 436.5,151.5 Z"/></g>
<g><path style="opacity:1" fill="#a3e1f3" d="M 407.5,155.5 C 413.383,156.051 418.049,158.718 421.5,163.5C 423.144,166.004 424.644,168.671 426,171.5C 426.498,174.817 426.665,178.15 426.5,181.5C 422.9,179.57 419.9,176.903 417.5,173.5C 417.664,170.813 417.497,168.146 417,165.5C 414.906,163.079 413.24,160.412 412,157.5C 409.618,159.389 407.118,161.055 404.5,162.5C 403.508,162.672 402.842,162.338 402.5,161.5C 404.177,159.46 405.844,157.46 407.5,155.5 Z"/></g>
<g><path style="opacity:1" fill="#e4f1f4" d="M 417.5,173.5 C 412.868,170.202 408.534,166.536 404.5,162.5C 407.118,161.055 409.618,159.389 412,157.5C 413.24,160.412 414.906,163.079 417,165.5C 417.497,168.146 417.664,170.813 417.5,173.5 Z"/></g>
<g><path style="opacity:1" fill="#a0d8e7" d="M 464.5,144.5 C 465.222,144.918 465.722,145.584 466,146.5C 466.383,145.944 466.883,145.611 467.5,145.5C 471.498,148.665 474.998,152.332 478,156.5C 479.373,158.695 479.706,161.029 479,163.5C 473.036,172.418 466.369,180.085 459,186.5C 457.447,185.156 456.947,183.823 457.5,182.5C 459.167,180.5 460.833,178.5 462.5,176.5C 465.537,178.186 466.87,177.186 466.5,173.5C 470.12,169.386 473.12,164.886 475.5,160C 473.772,156.1 471.106,152.934 467.5,150.5C 466.055,148.937 464.389,147.604 462.5,146.5C 463.167,145.833 463.833,145.167 464.5,144.5 Z"/></g>
<g><path style="opacity:1" fill="#096baa" d="M 467.5,150.5 C 471.106,152.934 473.772,156.1 475.5,160C 473.12,164.886 470.12,169.386 466.5,173.5C 465.883,173.611 465.383,173.944 465,174.5C 461.715,171.933 458.882,168.933 456.5,165.5C 459.925,160.314 463.592,155.314 467.5,150.5 Z"/></g>
<g><path style="opacity:1" fill="#0f3a57" d="M 431.5,145.5 C 433.5,146.5 435.5,147.5 437.5,148.5C 442.499,151.676 447.166,155.342 451.5,159.5C 451.687,162.69 453.354,164.69 456.5,165.5C 458.882,168.933 461.715,171.933 465,174.5C 465.383,173.944 465.883,173.611 466.5,173.5C 466.87,177.186 465.537,178.186 462.5,176.5C 459.5,172.833 456.167,169.5 452.5,166.5C 447.796,160.795 442.463,155.795 436.5,151.5C 434.833,149.5 433.167,147.5 431.5,145.5 Z"/></g>
<g><path style="opacity:1" fill="#068ec9" d="M 462.5,146.5 C 464.389,147.604 466.055,148.937 467.5,150.5C 463.592,155.314 459.925,160.314 456.5,165.5C 453.354,164.69 451.687,162.69 451.5,159.5C 452.973,158.928 454.307,158.095 455.5,157C 455.167,156.667 454.833,156.333 454.5,156C 457.293,152.895 459.96,149.728 462.5,146.5 Z"/></g>
<g><path style="opacity:1" fill="#81d5ee" d="M 430.5,145.5 C 430.833,145.5 431.167,145.5 431.5,145.5C 433.167,147.5 434.833,149.5 436.5,151.5C 433.281,149.776 431.281,150.776 430.5,154.5C 434.891,157.889 438.558,161.889 441.5,166.5C 434.141,160.138 426.808,153.804 419.5,147.5C 420.756,145.656 422.423,144.323 424.5,143.5C 426.167,144.5 427.833,145.5 429.5,146.5C 430.107,146.376 430.44,146.043 430.5,145.5 Z"/></g>
<g><path style="opacity:1" fill="#24c2de" d="M 464.5,144.5 C 463.833,145.167 463.167,145.833 462.5,146.5C 459.96,149.728 457.293,152.895 454.5,156C 454.833,156.333 455.167,156.667 455.5,157C 454.307,158.095 452.973,158.928 451.5,159.5C 447.166,155.342 442.499,151.676 437.5,148.5C 435.167,145.833 432.833,143.167 430.5,140.5C 434.502,136.49 438.502,132.49 442.5,128.5C 447.967,132.131 453.3,135.965 458.5,140C 456.22,144.233 454.053,148.399 452,152.5C 454.653,148.848 457.653,145.514 461,142.5C 462.303,142.978 463.469,143.645 464.5,144.5 Z"/></g>
<g><path style="opacity:1" fill="#1e5d91" d="M 419.5,132.5 C 421.85,133.861 424.184,135.194 426.5,136.5C 427.167,137.833 428.167,138.833 429.5,139.5C 429.5,140.167 429.833,140.5 430.5,140.5C 432.833,143.167 435.167,145.833 437.5,148.5C 435.5,147.5 433.5,146.5 431.5,145.5C 431.167,145.5 430.833,145.5 430.5,145.5C 426.208,142.38 422.041,139.047 418,135.5C 417.415,134.002 417.915,133.002 419.5,132.5 Z"/></g>
<g><path style="opacity:1" fill="#d7f0f5" d="M 467.5,145.5 C 466.883,145.611 466.383,145.944 466,146.5C 465.722,145.584 465.222,144.918 464.5,144.5C 463.469,143.645 462.303,142.978 461,142.5C 457.653,145.514 454.653,148.848 452,152.5C 454.053,148.399 456.22,144.233 458.5,140C 453.3,135.965 447.967,132.131 442.5,128.5C 438.502,132.49 434.502,136.49 430.5,140.5C 429.833,140.5 429.5,140.167 429.5,139.5C 442.221,123.696 441.221,122.696 426.5,136.5C 427.949,132.528 430.449,129.194 434,126.5C 434.667,125.5 434.667,124.5 434,123.5C 430.985,126.683 427.818,129.683 424.5,132.5C 424.167,132 423.833,131.5 423.5,131C 426.349,129.184 427.849,126.684 428,123.5C 424.962,126.369 422.129,129.369 419.5,132.5C 417.915,133.002 417.415,134.002 418,135.5C 422.041,139.047 426.208,142.38 430.5,145.5C 430.44,146.043 430.107,146.376 429.5,146.5C 427.833,145.5 426.167,144.5 424.5,143.5C 422.423,144.323 420.756,145.656 419.5,147.5C 415.852,144.858 412.185,142.191 408.5,139.5C 414.351,133.483 420.017,127.317 425.5,121C 429.75,117.345 434.416,116.679 439.5,119C 449.031,127.7 458.365,136.533 467.5,145.5 Z"/></g>
<g><path style="opacity:1" fill="#5fc2e3" d="M 426.5,136.5 C 424.184,135.194 421.85,133.861 419.5,132.5C 422.129,129.369 424.962,126.369 428,123.5C 427.849,126.684 426.349,129.184 423.5,131C 423.833,131.5 424.167,132 424.5,132.5C 427.818,129.683 430.985,126.683 434,123.5C 434.667,124.5 434.667,125.5 434,126.5C 430.449,129.194 427.949,132.528 426.5,136.5 Z"/></g>
<g><path style="opacity:1" fill="#57bee0" d="M 429.5,139.5 C 428.167,138.833 427.167,137.833 426.5,136.5C 441.221,122.696 442.221,123.696 429.5,139.5 Z"/></g>
<g><path style="opacity:1" fill="#2983da" d="M 281.5,211.5 C 295.941,209.925 310.274,211.258 324.5,215.5C 323.866,216.947 322.699,217.613 321,217.5C 316.151,215.637 311.984,216.637 308.5,220.5C 311.16,223.532 310.493,224.198 306.5,222.5C 302.844,223.833 299.177,225.166 295.5,226.5C 295.439,223.95 294.106,222.45 291.5,222C 292.5,221.5 293.5,221 294.5,220.5C 297.163,222.621 299.996,223.287 303,222.5C 303.684,221.216 303.517,220.049 302.5,219C 295.463,215.977 288.129,214.477 280.5,214.5C 282.631,213.686 284.964,213.186 287.5,213C 285.655,211.872 283.655,211.372 281.5,211.5 Z"/></g>
<g><path style="opacity:1" fill="#7dcb2a" d="M 280.5,214.5 C 288.129,214.477 295.463,215.977 302.5,219C 303.517,220.049 303.684,221.216 303,222.5C 299.996,223.287 297.163,222.621 294.5,220.5C 293.5,221 292.5,221.5 291.5,222C 294.106,222.45 295.439,223.95 295.5,226.5C 299.177,225.166 302.844,223.833 306.5,222.5C 310.493,224.198 311.16,223.532 308.5,220.5C 311.984,216.637 316.151,215.637 321,217.5C 322.699,217.613 323.866,216.947 324.5,215.5C 334.516,218.17 344.516,220.837 354.5,223.5C 363.489,229.671 372.155,236.338 380.5,243.5C 379.908,246.691 378.741,249.691 377,252.5C 376.333,253.833 376.333,255.167 377,256.5C 382.092,263.69 386.926,271.024 391.5,278.5C 391.611,279.117 391.944,279.617 392.5,280C 391.027,280.71 390.36,281.876 390.5,283.5C 387.482,283.335 384.482,283.502 381.5,284C 386.054,285.097 390.554,286.263 395,287.5C 395.699,290.322 394.532,291.988 391.5,292.5C 391.046,296.12 389.046,298.287 385.5,299C 381.381,299.143 377.381,299.81 373.5,301C 374.759,301.923 376.092,302.757 377.5,303.5C 372.022,307.198 366.022,308.364 359.5,307C 355.688,305.007 351.688,303.507 347.5,302.5C 346.5,303.167 345.5,303.833 344.5,304.5C 342.181,303.936 339.847,303.436 337.5,303C 332.751,299.727 327.751,296.727 322.5,294C 319.167,293.333 315.833,293.333 312.5,294C 314.741,295.522 317.074,296.855 319.5,298C 316.545,300.072 313.212,301.405 309.5,302C 306.773,302.818 304.106,302.652 301.5,301.5C 299.165,299.785 296.665,298.452 294,297.5C 292.833,297.667 291.667,297.833 290.5,298C 291.634,299.016 291.301,299.683 289.5,300C 280.267,299.445 271.101,299.612 262,300.5C 261.5,300.833 261,301.167 260.5,301.5C 268.078,303.645 275.744,305.312 283.5,306.5C 284.711,307.274 284.711,308.107 283.5,309C 280.529,309.794 277.529,310.461 274.5,311C 278.279,312.625 282.279,313.625 286.5,314C 287.357,314.689 288.023,315.522 288.5,316.5C 287.289,317.72 287.289,318.887 288.5,320C 290.813,320.662 293.146,321.162 295.5,321.5C 296.812,324.536 299.146,326.702 302.5,328C 300.423,328.192 298.423,328.692 296.5,329.5C 297.5,330.167 298.5,330.833 299.5,331.5C 296.833,332.167 294.167,332.833 291.5,333.5C 291.977,334.478 292.643,335.311 293.5,336C 287.059,338.088 280.392,339.422 273.5,340C 270.746,341.921 267.746,342.588 264.5,342C 257.191,340.023 251.858,335.689 248.5,329C 249.272,327.779 250.272,326.779 251.5,326C 246.125,326.038 241.125,324.704 236.5,322C 233.333,318.833 230.167,315.667 227,312.5C 226.289,310.633 226.789,309.133 228.5,308C 224.467,306.96 220.801,307.626 217.5,310C 217.833,310.333 218.167,310.667 218.5,311C 216.167,311.333 213.833,311.667 211.5,312C 212.5,312.833 213.5,313.667 214.5,314.5C 209.23,316.067 204.23,315.567 199.5,313C 200.167,312.667 200.833,312.333 201.5,312C 200.167,310.667 198.833,309.333 197.5,308C 198.537,306.149 197.87,304.983 195.5,304.5C 195.559,302.278 196.725,301.278 199,301.5C 205.368,304.665 210.702,303.332 215,297.5C 215.27,296.068 214.604,295.068 213,294.5C 211.825,289.816 211.659,285.15 212.5,280.5C 215.966,278.511 219.632,277.011 223.5,276C 227.469,272.53 226.802,269.863 221.5,268C 224.56,265.171 228.227,263.337 232.5,262.5C 235.127,256.04 239.793,251.873 246.5,250C 244.865,248.252 242.865,247.085 240.5,246.5C 243.287,243.526 246.621,242.86 250.5,244.5C 249.687,245.814 248.687,246.981 247.5,248C 250.294,249.557 253.294,249.89 256.5,249C 260.143,248.028 263.81,247.194 267.5,246.5C 268.452,244.955 268.785,243.288 268.5,241.5C 270.527,241.662 272.527,241.495 274.5,241C 273.167,239.667 273.167,238.333 274.5,237C 277.5,236.667 280.5,236.333 283.5,236C 284.308,235.692 284.975,235.192 285.5,234.5C 282.703,233.433 279.869,233.433 277,234.5C 273.261,234.095 271.927,232.095 273,228.5C 274.5,227 276,225.5 277.5,224C 277,223.833 276.5,223.667 276,223.5C 271.105,226.533 266.938,230.366 263.5,235C 267.268,236.177 267.101,237.344 263,238.5C 261.455,245.784 257.788,247.451 252,243.5C 251.51,242.207 251.343,240.873 251.5,239.5C 249.319,239.284 247.653,240.117 246.5,242C 238.891,242.545 238.558,241.212 245.5,238C 240.217,239.392 239.551,238.392 243.5,235C 246.833,233.667 250.167,232.333 253.5,231C 253.167,230.667 252.833,230.333 252.5,230C 259.883,221.077 269.216,215.91 280.5,214.5 Z"/></g>
<g><path style="opacity:1" fill="#3689cb" d="M 313.5,218.5 C 314.675,218.281 315.675,218.614 316.5,219.5C 315.277,220.614 313.944,220.781 312.5,220C 313.056,219.617 313.389,219.117 313.5,218.5 Z"/></g>
<g><path style="opacity:1" fill="#123752" d="M 161.5,218.5 C 163.371,218.859 164.871,219.859 166,221.5C 168.629,226.421 170.962,231.421 173,236.5C 173.667,240.5 173.667,244.5 173,248.5C 170.934,253.363 169.268,258.363 168,263.5C 167.167,264.333 166.333,265.167 165.5,266C 154.198,267.827 142.865,269.327 131.5,270.5C 130.483,263.195 130.317,255.861 131,248.5C 141.062,238.271 151.228,228.271 161.5,218.5 Z"/></g>
<g><path style="opacity:1" fill="#6ed1ee" d="M 437.5,341.5 C 439.196,332.766 440.196,323.932 440.5,315C 439.295,294.322 436.962,273.822 433.5,253.5C 432.769,243.009 432.102,232.509 431.5,222C 431.342,215.073 432.009,208.24 433.5,201.5C 433.379,200.106 433.046,198.772 432.5,197.5C 430.833,196.5 429.5,195.167 428.5,193.5C 426.742,195.792 425.576,198.459 425,201.5C 424.712,217.521 425.212,233.521 426.5,249.5C 428.103,258.952 429.436,268.452 430.5,278C 430.395,279.592 430.061,281.092 429.5,282.5C 427.5,283.833 425.5,285.167 423.5,286.5C 422.566,275.492 421.566,264.492 420.5,253.5C 417.023,236.651 416.19,219.651 418,202.5C 419.149,198.035 420.982,193.868 423.5,190C 425.417,190.027 427.084,190.861 428.5,192.5C 429.107,192.376 429.44,192.043 429.5,191.5C 431.886,192.373 433.886,193.873 435.5,196C 437.463,196.844 438.796,196.344 439.5,194.5C 442.101,191.396 444.934,188.396 448,185.5C 448.667,184.833 448.667,184.167 448,183.5C 435.081,171.646 421.581,160.646 407.5,150.5C 407.141,148.629 406.141,147.129 404.5,146C 405,145.833 405.5,145.667 406,145.5C 423.882,158.877 440.716,173.544 456.5,189.5C 455.635,189.564 454.635,189.897 453.5,190.5C 452.084,188.861 450.417,188.027 448.5,188C 442.949,193.6 438.782,200.1 436,207.5C 435.333,217.167 435.333,226.833 436,236.5C 439.241,261.427 441.741,286.427 443.5,311.5C 443.302,322.686 441.802,333.686 439,344.5C 437.961,343.756 437.461,342.756 437.5,341.5 Z"/></g>
<g><path style="opacity:1" fill="#299ecd" d="M 433.5,253.5 C 432.603,254.598 431.77,254.598 431,253.5C 431.035,249.755 430.035,249.088 428,251.5C 427.722,250.584 427.222,249.918 426.5,249.5C 425.212,233.521 424.712,217.521 425,201.5C 425.576,198.459 426.742,195.792 428.5,193.5C 429.5,195.167 430.833,196.5 432.5,197.5C 433.046,198.772 433.379,200.106 433.5,201.5C 432.009,208.24 431.342,215.073 431.5,222C 432.102,232.509 432.769,243.009 433.5,253.5 Z"/></g>
<g><path style="opacity:1" fill="#e5f5f7" d="M 163.5,248.5 C 156.829,249.783 150.162,250.95 143.5,252C 149.177,247.438 153.51,241.938 156.5,235.5C 157.793,233.704 159.293,232.037 161,230.5C 165.852,236.051 166.685,242.051 163.5,248.5 Z"/></g>
<g><path style="opacity:0.999" fill="#1d6805" d="M 544.5,326.5 C 544.721,329.067 545.388,331.401 546.5,333.5C 546.414,334.496 546.748,335.329 547.5,336C 549.712,336.789 551.712,336.622 553.5,335.5C 554.496,335.586 555.329,335.252 556,334.5C 556.667,329.833 556.667,325.167 556,320.5C 554.092,317.785 552.759,314.785 552,311.5C 542.333,301.167 532.667,290.833 523,280.5C 517.835,266.159 519.169,252.492 527,239.5C 533.168,233.245 540.668,230.578 549.5,231.5C 562.019,229.895 571.185,234.561 577,245.5C 579.448,253.048 581.281,260.715 582.5,268.5C 573.5,268.5 564.5,268.5 555.5,268.5C 556.899,261.735 554.732,256.735 549,253.5C 545.466,254.53 543.633,256.864 543.5,260.5C 544.099,263.702 545.266,266.702 547,269.5C 554.364,277.198 562.03,284.531 570,291.5C 582.17,304.66 585.837,319.993 581,337.5C 578.155,352.938 568.821,360.604 553,360.5C 544.875,359.843 537.041,358.01 529.5,355C 527.641,353.442 526.141,351.609 525,349.5C 523.891,345.281 522.225,341.281 520,337.5C 519.804,329.118 519.304,320.785 518.5,312.5C 527.475,311.502 536.475,311.168 545.5,311.5C 544.836,316.473 544.503,321.473 544.5,326.5 Z"/></g>
<g><path style="opacity:0.89" fill="#709f5f" d="M 699.5,232.5 C 707.65,231.507 715.983,231.174 724.5,231.5C 724.81,234.713 724.477,237.713 723.5,240.5C 723.5,237.833 723.5,235.167 723.5,232.5C 715.5,232.5 707.5,232.5 699.5,232.5 Z"/></g>
<g><path style="opacity:0.904" fill="#8db381" d="M 866.5,242.5 C 866.5,239.167 866.5,235.833 866.5,232.5C 848.167,232.5 829.833,232.5 811.5,232.5C 811.5,240.5 811.5,248.5 811.5,256.5C 810.507,248.35 810.174,240.017 810.5,231.5C 829.5,231.5 848.5,231.5 867.5,231.5C 867.815,235.371 867.482,239.038 866.5,242.5 Z"/></g>
<g><path style="opacity:0.275" fill="#8db381" d="M 936.5,232.5 C 928.167,232.5 919.833,232.5 911.5,232.5C 911.5,234.833 911.5,237.167 911.5,239.5C 910.527,237.052 910.194,234.385 910.5,231.5C 919.349,231.174 928.016,231.507 936.5,232.5 Z"/></g>
<g><path style="opacity:1" fill="#1c6703" d="M 589.5,326.5 C 591.41,316.733 592.41,306.733 592.5,296.5C 592.244,292.731 592.577,289.064 593.5,285.5C 595.039,279.063 595.706,272.396 595.5,265.5C 595.437,260.797 595.771,256.13 596.5,251.5C 598.205,246.097 598.872,240.43 598.5,234.5C 598.611,233.883 598.944,233.383 599.5,233C 602.658,232.446 605.825,231.946 609,231.5C 620.144,232.421 631.311,232.755 642.5,232.5C 646.683,274.448 650.349,316.448 653.5,358.5C 645.833,358.5 638.167,358.5 630.5,358.5C 630.421,356.334 629.754,354.334 628.5,352.5C 629.668,347.839 629.668,343.172 628.5,338.5C 623.238,338.195 618.072,338.529 613,339.5C 612.408,342.694 612.574,345.861 613.5,349C 611.928,351.919 611.261,355.085 611.5,358.5C 603.411,359.295 595.411,359.295 587.5,358.5C 588.468,347.854 589.134,337.187 589.5,326.5 Z M 619.5,253.5 C 620.777,254.694 621.444,256.36 621.5,258.5C 622.417,269.341 623.417,280.174 624.5,291C 624.42,292.894 624.087,294.727 623.5,296.5C 623.808,297.308 624.308,297.975 625,298.5C 625.611,305.164 626.111,311.83 626.5,318.5C 622.5,318.5 618.5,318.5 614.5,318.5C 615.025,311.014 616.025,303.68 617.5,296.5C 617.414,293.958 617.08,291.458 616.5,289C 617.713,277.193 618.713,265.359 619.5,253.5 Z"/></g>
<g><path style="opacity:1" fill="#236a0b" d="M 658.5,231.5 C 666.684,231.174 674.684,231.508 682.5,232.5C 682.563,240.427 683.563,248.094 685.5,255.5C 685.5,256.167 685.5,256.833 685.5,257.5C 685.073,263.114 685.74,268.447 687.5,273.5C 687.5,274.5 687.5,275.5 687.5,276.5C 687.156,282.098 687.822,287.432 689.5,292.5C 689.5,293.167 689.5,293.833 689.5,294.5C 689.363,299.937 690.03,305.27 691.5,310.5C 692.484,307.572 692.817,304.572 692.5,301.5C 692.5,301.167 692.5,300.833 692.5,300.5C 694.608,291.09 695.608,281.424 695.5,271.5C 695.578,264.3 696.245,257.3 697.5,250.5C 698.946,244.726 699.612,238.726 699.5,232.5C 707.5,232.5 715.5,232.5 723.5,232.5C 723.5,235.167 723.5,237.833 723.5,240.5C 723.473,246.051 722.806,251.384 721.5,256.5C 719.281,267.257 717.948,278.257 717.5,289.5C 716.14,305.717 714.14,321.717 711.5,337.5C 709.941,344.286 708.941,351.286 708.5,358.5C 696.833,358.5 685.167,358.5 673.5,358.5C 670.281,341.089 667.948,323.422 666.5,305.5C 666.386,296.924 665.386,288.59 663.5,280.5C 661.194,267.383 659.527,254.05 658.5,240.5C 658.5,237.5 658.5,234.5 658.5,231.5 Z"/></g>
<g><path style="opacity:1" fill="#1e6805" d="M 783.5,341.5 C 783.5,347.167 783.5,352.833 783.5,358.5C 766.167,358.5 748.833,358.5 731.5,358.5C 731.5,316.5 731.5,274.5 731.5,232.5C 748.325,231.503 765.325,231.17 782.5,231.5C 782.5,240.167 782.5,248.833 782.5,257.5C 774.167,257.5 765.833,257.5 757.5,257.5C 757.5,265.167 757.5,272.833 757.5,280.5C 765.5,280.5 773.5,280.5 781.5,280.5C 781.558,288.521 781.224,296.521 780.5,304.5C 772.858,305.263 765.191,305.597 757.5,305.5C 757.62,315.188 757.287,324.854 756.5,334.5C 765.5,334.5 774.5,334.5 783.5,334.5C 783.5,336.833 783.5,339.167 783.5,341.5 Z"/></g>
<g><path style="opacity:1" fill="#1b6702" d="M 866.5,242.5 C 866.5,247.167 866.5,251.833 866.5,256.5C 861.5,256.5 856.5,256.5 851.5,256.5C 851.644,290.47 851.644,324.47 851.5,358.5C 843.167,358.5 834.833,358.5 826.5,358.5C 826.568,324.495 826.235,290.495 825.5,256.5C 820.833,256.5 816.167,256.5 811.5,256.5C 811.5,248.5 811.5,240.5 811.5,232.5C 829.833,232.5 848.167,232.5 866.5,232.5C 866.5,235.833 866.5,239.167 866.5,242.5 Z"/></g>
<g><path style="opacity:1" fill="#1a6601" d="M 899.5,276.5 C 903.298,277.483 907.298,277.817 911.5,277.5C 911.5,271.167 911.5,264.833 911.5,258.5C 911.5,252.167 911.5,245.833 911.5,239.5C 911.5,237.167 911.5,234.833 911.5,232.5C 919.833,232.5 928.167,232.5 936.5,232.5C 936.5,274.5 936.5,316.5 936.5,358.5C 928.167,358.5 919.833,358.5 911.5,358.5C 911.5,339.5 911.5,320.5 911.5,301.5C 907.167,301.5 902.833,301.5 898.5,301.5C 898.5,320.5 898.5,339.5 898.5,358.5C 890.5,358.5 882.5,358.5 874.5,358.5C 874.254,316.145 873.921,273.812 873.5,231.5C 882.167,231.5 890.833,231.5 899.5,231.5C 898.425,246.493 898.425,261.493 899.5,276.5 Z"/></g>
<g><path style="opacity:1" fill="#1b6602" d="M 947.5,231.5 C 964.5,231.5 981.5,231.5 998.5,231.5C 998.5,240.167 998.5,248.833 998.5,257.5C 990.178,256.945 981.844,256.612 973.5,256.5C 973.956,264.92 973.956,273.254 973.5,281.5C 981.5,281.5 989.5,281.5 997.5,281.5C 997.5,289.167 997.5,296.833 997.5,304.5C 989.5,304.5 981.5,304.5 973.5,304.5C 973.5,314.5 973.5,324.5 973.5,334.5C 982.167,334.5 990.833,334.5 999.5,334.5C 999.5,342.5 999.5,350.5 999.5,358.5C 982.167,358.5 964.833,358.5 947.5,358.5C 947.5,316.167 947.5,273.833 947.5,231.5 Z"/></g>
<g><path style="opacity:0.579" fill="#bad1b1" d="M 731.5,232.5 C 731.5,274.5 731.5,316.5 731.5,358.5C 748.833,358.5 766.167,358.5 783.5,358.5C 783.5,352.833 783.5,347.167 783.5,341.5C 784.49,347.31 784.823,353.31 784.5,359.5C 766.5,359.5 748.5,359.5 730.5,359.5C 730.168,316.997 730.501,274.663 731.5,232.5 Z"/></g>
<g><path style="opacity:0.072" fill="#e2ecde" d="M 658.5,231.5 C 658.5,234.5 658.5,237.5 658.5,240.5C 657.746,237.977 657.08,235.311 656.5,232.5C 656.957,231.702 657.624,231.369 658.5,231.5 Z"/></g>
<g><path style="opacity:1" fill="#72bf41" d="M 217.5,234.5 C 215.316,236.674 213.983,239.34 213.5,242.5C 212.232,243.428 210.899,243.595 209.5,243C 210.774,242.023 210.774,241.189 209.5,240.5C 211.878,238.122 214.545,236.122 217.5,234.5 Z"/></g>
<g><path style="opacity:1" fill="#acc7a1" d="M 682.5,232.5 C 684.145,239.946 685.145,247.612 685.5,255.5C 683.563,248.094 682.563,240.427 682.5,232.5 Z"/></g>
<g><path style="opacity:0.067" fill="#afc9a5" d="M 598.5,234.5 C 598.872,240.43 598.205,246.097 596.5,251.5C 596.717,245.64 597.383,239.973 598.5,234.5 Z"/></g>
<g><path style="opacity:1" fill="#4db6d9" d="M 416.5,248.5 C 417.434,249.568 417.768,250.901 417.5,252.5C 410.398,257.087 403.398,261.921 396.5,267C 395.002,267.585 394.002,267.085 393.5,265.5C 400.632,259.101 408.299,253.435 416.5,248.5 Z"/></g>
<g><path style="opacity:0.79" fill="#aec9a4" d="M 699.5,232.5 C 699.612,238.726 698.946,244.726 697.5,250.5C 697.388,244.274 698.054,238.274 699.5,232.5 Z"/></g>
<g><path style="opacity:1" fill="#65c9e8" d="M 156.5,235.5 C 153.51,241.938 149.177,247.438 143.5,252C 150.162,250.95 156.829,249.783 163.5,248.5C 163.048,251.876 162.382,255.209 161.5,258.5C 154.552,260.158 147.552,261.491 140.5,262.5C 139.339,258.205 139.172,253.871 140,249.5C 145.373,244.623 150.873,239.956 156.5,235.5 Z"/></g>
<g><path style="opacity:1" fill="#4ab9de" d="M 426.5,249.5 C 427.222,249.918 427.722,250.584 428,251.5C 430.035,249.088 431.035,249.755 431,253.5C 431.77,254.598 432.603,254.598 433.5,253.5C 436.962,273.822 439.295,294.322 440.5,315C 440.196,323.932 439.196,332.766 437.5,341.5C 432.822,336.821 428.489,331.821 424.5,326.5C 427.618,324.437 430.952,322.604 434.5,321C 435.337,319.989 435.67,318.822 435.5,317.5C 434.261,305.974 432.594,294.64 430.5,283.5C 430.5,282.833 430.167,282.5 429.5,282.5C 430.061,281.092 430.395,279.592 430.5,278C 429.436,268.452 428.103,258.952 426.5,249.5 Z"/></g>
<g><path style="opacity:1" fill="#e4f1f3" d="M 420.5,253.5 C 421.566,264.492 422.566,275.492 423.5,286.5C 421.188,288.636 418.688,290.636 416,292.5C 415.833,291.667 415.667,290.833 415.5,290C 418.61,277.97 419.276,265.804 417.5,253.5C 418.5,252.167 419.5,252.167 420.5,253.5 Z"/></g>
<g><path style="opacity:1" fill="#1e8bf8" d="M 281.5,211.5 C 283.655,211.372 285.655,211.872 287.5,213C 284.964,213.186 282.631,213.686 280.5,214.5C 269.216,215.91 259.883,221.077 252.5,230C 252.833,230.333 253.167,230.667 253.5,231C 250.167,232.333 246.833,233.667 243.5,235C 239.551,238.392 240.217,239.392 245.5,238C 238.558,241.212 238.891,242.545 246.5,242C 247.653,240.117 249.319,239.284 251.5,239.5C 251.343,240.873 251.51,242.207 252,243.5C 257.788,247.451 261.455,245.784 263,238.5C 267.101,237.344 267.268,236.177 263.5,235C 266.938,230.366 271.105,226.533 276,223.5C 276.5,223.667 277,223.833 277.5,224C 276,225.5 274.5,227 273,228.5C 271.927,232.095 273.261,234.095 277,234.5C 279.869,233.433 282.703,233.433 285.5,234.5C 284.975,235.192 284.308,235.692 283.5,236C 280.5,236.333 277.5,236.667 274.5,237C 273.167,238.333 273.167,239.667 274.5,241C 272.527,241.495 270.527,241.662 268.5,241.5C 268.785,243.288 268.452,244.955 267.5,246.5C 263.81,247.194 260.143,248.028 256.5,249C 253.294,249.89 250.294,249.557 247.5,248C 248.687,246.981 249.687,245.814 250.5,244.5C 246.621,242.86 243.287,243.526 240.5,246.5C 242.865,247.085 244.865,248.252 246.5,250C 239.793,251.873 235.127,256.04 232.5,262.5C 228.227,263.337 224.56,265.171 221.5,268C 226.802,269.863 227.469,272.53 223.5,276C 219.632,277.011 215.966,278.511 212.5,280.5C 211.659,285.15 211.825,289.816 213,294.5C 214.604,295.068 215.27,296.068 215,297.5C 210.702,303.332 205.368,304.665 199,301.5C 196.725,301.278 195.559,302.278 195.5,304.5C 194.876,306.754 193.543,308.421 191.5,309.5C 184.771,300.327 180.771,289.994 179.5,278.5C 186.901,263.767 196.901,251.101 209.5,240.5C 210.774,241.189 210.774,242.023 209.5,243C 210.899,243.595 212.232,243.428 213.5,242.5C 213.983,239.34 215.316,236.674 217.5,234.5C 236.461,220.511 257.795,212.844 281.5,211.5 Z"/></g>
<g><path style="opacity:1" fill="#78c73f" d="M 221.5,257.5 C 218.945,259.606 216.612,261.94 214.5,264.5C 213.912,262.988 213.578,261.655 213.5,260.5C 215.182,257.647 217.182,254.98 219.5,252.5C 221.217,253.668 221.884,255.335 221.5,257.5 Z"/></g>
<g><path style="opacity:1" fill="#78c73d" d="M 227.5,242.5 C 230.896,242.633 231.229,243.633 228.5,245.5C 229.025,246.192 229.692,246.692 230.5,247C 228.108,249.273 228.108,251.44 230.5,253.5C 230.291,254.086 229.957,254.586 229.5,255C 233.281,255.367 233.948,256.7 231.5,259C 231.833,259.333 232.167,259.667 232.5,260C 227.961,261.066 223.794,262.899 220,265.5C 220.05,263.248 221.216,261.582 223.5,260.5C 223.376,259.893 223.043,259.56 222.5,259.5C 222.712,257.616 223.712,256.283 225.5,255.5C 224.687,254.186 223.687,253.019 222.5,252C 224.335,251.072 224.668,249.906 223.5,248.5C 224.361,246.089 225.694,244.089 227.5,242.5 Z"/></g>
<g><path style="opacity:1" fill="#2f96fc" d="M 224.5,239.5 C 223.588,240.738 223.421,242.072 224,243.5C 225.039,242.29 226.206,241.29 227.5,240.5C 227.5,241.167 227.5,241.833 227.5,242.5C 225.694,244.089 224.361,246.089 223.5,248.5C 224.668,249.906 224.335,251.072 222.5,252C 223.687,253.019 224.687,254.186 225.5,255.5C 223.712,256.283 222.712,257.616 222.5,259.5C 221.662,259.158 221.328,258.492 221.5,257.5C 221.884,255.335 221.217,253.668 219.5,252.5C 217.182,254.98 215.182,257.647 213.5,260.5C 208.731,265.771 203.731,270.938 198.5,276C 196.691,278.238 194.358,279.405 191.5,279.5C 191.643,277.738 191.309,276.071 190.5,274.5C 198.178,260.667 208.511,249.167 221.5,240C 222.448,239.517 223.448,239.351 224.5,239.5 Z"/></g>
<g><path style="opacity:1" fill="#74c348" d="M 232.5,238.5 C 233.376,238.369 234.043,238.702 234.5,239.5C 231.74,243.564 231.074,243.231 232.5,238.5 Z"/></g>
<g><path style="opacity:1" fill="#77c640" d="M 227.5,240.5 C 226.206,241.29 225.039,242.29 224,243.5C 223.421,242.072 223.588,240.738 224.5,239.5C 225.458,239.047 226.292,238.381 227,237.5C 227.483,238.448 227.649,239.448 227.5,240.5 Z"/></g>
<g><path style="opacity:0.535" fill="#9abc8f" d="M 911.5,258.5 C 911.5,264.833 911.5,271.167 911.5,277.5C 907.298,277.817 903.298,277.483 899.5,276.5C 903.167,276.5 906.833,276.5 910.5,276.5C 910.177,270.31 910.51,264.31 911.5,258.5 Z"/></g>
<g><path style="opacity:0.055" fill="#d4e2cf" d="M 721.5,256.5 C 720.888,267.724 719.555,278.724 717.5,289.5C 717.948,278.257 719.281,267.257 721.5,256.5 Z"/></g>
<g><path style="opacity:1" fill="#b0caa5" d="M 685.5,257.5 C 686.665,262.633 687.332,267.966 687.5,273.5C 685.74,268.447 685.073,263.114 685.5,257.5 Z"/></g>
<g><path style="opacity:1" fill="#1a86f0" d="M 251.5,269.5 C 256.274,270.93 260.274,273.597 263.5,277.5C 263.167,277.833 262.833,278.167 262.5,278.5C 259.961,276.8 257.295,275.3 254.5,274C 252.859,272.871 251.859,271.371 251.5,269.5 Z"/></g>
<g><path style="opacity:1" fill="#1980ba" d="M 116.5,273.5 C 125.274,273.408 127.274,276.908 122.5,284C 113.412,284.426 111.412,280.926 116.5,273.5 Z"/></g>
<g><path style="opacity:1" fill="#1385fa" d="M 272.5,283.5 C 271.457,286.056 269.79,288.223 267.5,290C 263.773,292.701 259.773,294.535 255.5,295.5C 251.325,296.08 248.325,294.58 246.5,291C 246.493,289.188 247.16,287.688 248.5,286.5C 239.243,286.778 230.91,289.944 223.5,296C 220.866,296.925 219.699,296.091 220,293.5C 224.418,288.743 229.085,284.41 234,280.5C 234.402,279.128 234.902,277.795 235.5,276.5C 239.197,276.001 242.531,274.667 245.5,272.5C 247.754,274.919 250.421,276.752 253.5,278C 255.359,279.558 256.859,281.391 258,283.5C 259.353,282.315 260.52,280.981 261.5,279.5C 264.734,281.993 268.401,283.327 272.5,283.5 Z"/></g>
<g><path style="opacity:1" fill="#218bf6" d="M 284.5,293.5 C 282.886,295.075 280.886,295.741 278.5,295.5C 275.303,295.027 272.137,294.361 269,293.5C 266.843,294.385 266.01,296.052 266.5,298.5C 262.653,298.106 258.986,297.106 255.5,295.5C 259.773,294.535 263.773,292.701 267.5,290C 269.79,288.223 271.457,286.056 272.5,283.5C 273.575,284.562 274.575,284.562 275.5,283.5C 273.833,282.5 272.5,281.167 271.5,279.5C 273.555,278.813 275.221,277.646 276.5,276C 278.112,275.28 279.612,275.446 281,276.5C 281.874,272.251 283.707,268.418 286.5,265C 289.487,265.618 292.321,266.785 295,268.5C 296.404,268.491 297.57,267.991 298.5,267C 297.167,266 297.167,265 298.5,264C 299.635,263.251 300.635,263.417 301.5,264.5C 300.515,266.098 300.349,267.765 301,269.5C 304.039,270.531 306.539,272.365 308.5,275C 306.966,275.923 305.299,276.423 303.5,276.5C 300.411,275.79 297.411,274.79 294.5,273.5C 292.226,273.97 290.226,274.97 288.5,276.5C 287.707,276.069 286.873,275.735 286,275.5C 283.458,276.902 280.792,277.902 278,278.5C 278.973,279.974 279.473,281.474 279.5,283C 282.167,284.333 284.833,285.667 287.5,287C 290.656,287.603 293.656,287.103 296.5,285.5C 296.988,288.437 296.321,291.271 294.5,294C 291.2,293.954 287.866,293.788 284.5,293.5 Z"/></g>
<g><path style="opacity:1" fill="#b7edf9" d="M 430.5,283.5 C 432.594,294.64 434.261,305.974 435.5,317.5C 432.426,317.873 429.426,318.539 426.5,319.5C 427.139,309.773 426.472,300.44 424.5,291.5C 426.512,288.795 428.512,286.128 430.5,283.5 Z"/></g>
<g><path style="opacity:0.112" fill="#b0caa6" d="M 595.5,265.5 C 595.706,272.396 595.039,279.063 593.5,285.5C 593.521,278.626 594.187,271.959 595.5,265.5 Z"/></g>
<g><path style="opacity:0.061" fill="#d1e0cb" d="M 663.5,280.5 C 665.386,288.59 666.386,296.924 666.5,305.5C 664.856,297.382 663.856,289.049 663.5,280.5 Z"/></g>
<g><path style="opacity:1" fill="#b2cba7" d="M 687.5,276.5 C 688.665,281.633 689.332,286.966 689.5,292.5C 687.822,287.432 687.156,282.098 687.5,276.5 Z"/></g>
<g><path style="opacity:1" fill="#1a3e56" d="M 144.5,284.5 C 152.744,284.228 155.078,287.728 151.5,295C 147.879,297.09 144.379,296.923 141,294.5C 139.699,292.635 139.365,290.635 140,288.5C 141.667,287.267 143.167,285.933 144.5,284.5 Z"/></g>
<g><path style="opacity:1" fill="#4b9129" d="M 144.5,286.5 C 148.5,285.833 150.167,287.5 149.5,291.5C 144.58,292.585 142.913,290.918 144.5,286.5 Z"/></g>
<g><path style="opacity:1" fill="#e5f3f5" d="M 424.5,291.5 C 426.472,300.44 427.139,309.773 426.5,319.5C 429.426,318.539 432.426,317.873 435.5,317.5C 435.67,318.822 435.337,319.989 434.5,321C 430.952,322.604 427.618,324.437 424.5,326.5C 417.93,314.791 417.93,303.124 424.5,291.5 Z"/></g>
<g><path style="opacity:1" fill="#b4cdaa" d="M 695.5,271.5 C 695.608,281.424 694.608,291.09 692.5,300.5C 693.052,290.644 694.052,280.977 695.5,271.5 Z"/></g>
<g><path style="opacity:1" fill="#49a5a3" d="M 284.5,293.5 C 284.5,294.5 284.5,295.5 284.5,296.5C 282.265,296.795 280.265,296.461 278.5,295.5C 280.265,296.461 282.265,296.795 284.5,296.5C 284.5,295.5 284.5,294.5 284.5,293.5 Z"/></g>
<g><path style="opacity:1" fill="#d6edf2" d="M 406.5,298.5 C 408.116,304.398 409.116,310.398 409.5,316.5C 407.901,316.232 406.568,316.566 405.5,317.5C 405.5,324.167 405.5,330.833 405.5,337.5C 405.539,338.756 405.039,339.756 404,340.5C 402.176,331.89 400.676,323.223 399.5,314.5C 400.515,308.738 401.848,303.071 403.5,297.5C 404.417,298.127 405.417,298.461 406.5,298.5 Z"/></g>
<g><path style="opacity:1" fill="#a1e4f5" d="M 406.5,298.5 C 408.352,299.089 410.185,299.756 412,300.5C 412.912,305.464 413.412,310.464 413.5,315.5C 413.5,317.167 413.5,318.833 413.5,320.5C 410.677,319.783 408.01,318.783 405.5,317.5C 406.568,316.566 407.901,316.232 409.5,316.5C 409.116,310.398 408.116,304.398 406.5,298.5 Z"/></g>
<g><path style="opacity:1" fill="#133852" d="M 133.5,301.5 C 139.715,303.609 145.381,306.776 150.5,311C 151.081,311.893 151.415,312.893 151.5,314C 147.356,321.103 142.356,327.603 136.5,333.5C 131.362,330.195 126.362,326.695 121.5,323C 118.918,320.108 119.084,317.275 122,314.5C 125.67,309.998 129.503,305.665 133.5,301.5 Z"/></g>
<g><path style="opacity:0.215" fill="#e7efe3" d="M 689.5,294.5 C 690.317,296.969 690.817,299.635 691,302.5C 691.383,301.944 691.883,301.611 692.5,301.5C 692.817,304.572 692.484,307.572 691.5,310.5C 690.03,305.27 689.363,299.937 689.5,294.5 Z"/></g>
<g><path style="opacity:1" fill="#1c77d0" d="M 179.5,278.5 C 180.771,289.994 184.771,300.327 191.5,309.5C 193.489,311.99 195.656,314.323 198,316.5C 197.722,320.139 197.722,323.806 198,327.5C 198.953,329.455 200.287,331.122 202,332.5C 201.565,340.08 205.065,344.913 212.5,347C 214.668,350.36 217.668,352.194 221.5,352.5C 227.112,351.53 232.445,349.696 237.5,347C 241.956,347.052 245.956,348.552 249.5,351.5C 250.547,352.922 250.547,354.422 249.5,356C 250.377,358.253 251.377,360.419 252.5,362.5C 216.394,361.703 188.894,346.036 170,315.5C 168.589,313.35 167.755,311.016 167.5,308.5C 168.149,304.049 169.316,299.716 171,295.5C 173.352,289.462 176.185,283.796 179.5,278.5 Z"/></g>
<g><path style="opacity:1" fill="#51b638" d="M 400.5,354.5 C 398.519,356.144 396.519,357.81 394.5,359.5C 393.847,355.765 393.014,352.099 392,348.5C 390.814,354.085 390.148,359.751 390,365.5C 389.692,366.308 389.192,366.975 388.5,367.5C 387.089,360.079 387.422,352.745 389.5,345.5C 389.771,343.079 389.105,342.413 387.5,343.5C 386.394,341.716 386.394,339.882 387.5,338C 386.594,335.209 385.927,332.376 385.5,329.5C 383.801,329.34 382.134,329.506 380.5,330C 378.099,332.062 375.433,333.729 372.5,335C 369.769,337.626 367.936,340.793 367,344.5C 365.981,345.687 364.814,346.687 363.5,347.5C 361.731,342.175 360.398,336.841 359.5,331.5C 360.656,328.78 360.989,326.114 360.5,323.5C 359.131,325.124 357.464,325.624 355.5,325C 354.718,322.26 354.218,319.426 354,316.5C 353.292,315.619 352.458,314.953 351.5,314.5C 348.695,313.681 345.695,313.181 342.5,313C 336.012,309.328 329.678,305.495 323.5,301.5C 322.833,301.833 322.167,302.167 321.5,302.5C 322.332,305.161 323.166,307.828 324,310.5C 325.062,311.899 326.395,312.899 328,313.5C 329.7,312.073 331.533,311.24 333.5,311C 334.977,313.445 336.81,315.612 339,317.5C 339.667,318.5 339.667,319.5 339,320.5C 332.518,323.997 326.018,327.497 319.5,331C 315.091,332.262 311.257,331.428 308,328.5C 307.794,325.377 307.127,322.377 306,319.5C 301.76,314.683 297.76,309.683 294,304.5C 297.786,311.422 301.12,318.755 304,326.5C 305.899,330.66 308.899,333.66 313,335.5C 317.487,334.372 321.987,334.372 326.5,335.5C 326.509,337.308 326.009,338.975 325,340.5C 318.148,345.929 311.481,351.596 305,357.5C 303.092,360.206 302.259,363.206 302.5,366.5C 303.324,369.764 303.658,373.098 303.5,376.5C 302.71,377.609 302.21,378.942 302,380.5C 299.667,382.167 297.333,383.833 295,385.5C 295.151,389.373 293.984,392.706 291.5,395.5C 292.52,397.432 292.687,399.432 292,401.5C 287.583,403.959 283.083,406.292 278.5,408.5C 277.513,406.527 276.513,404.527 275.5,402.5C 273.955,401.548 272.288,401.215 270.5,401.5C 268.471,399.142 266.471,396.808 264.5,394.5C 262.924,391.074 261.091,387.74 259,384.5C 258.531,381.056 259.031,377.722 260.5,374.5C 260.457,373.584 260.124,372.917 259.5,372.5C 257.912,368.59 255.579,365.257 252.5,362.5C 251.377,360.419 250.377,358.253 249.5,356C 250.547,354.422 250.547,352.922 249.5,351.5C 245.956,348.552 241.956,347.052 237.5,347C 232.445,349.696 227.112,351.53 221.5,352.5C 217.668,352.194 214.668,350.36 212.5,347C 205.065,344.913 201.565,340.08 202,332.5C 200.287,331.122 198.953,329.455 198,327.5C 197.722,323.806 197.722,320.139 198,316.5C 195.656,314.323 193.489,311.99 191.5,309.5C 193.543,308.421 194.876,306.754 195.5,304.5C 197.87,304.983 198.537,306.149 197.5,308C 198.833,309.333 200.167,310.667 201.5,312C 200.833,312.333 200.167,312.667 199.5,313C 204.23,315.567 209.23,316.067 214.5,314.5C 213.5,313.667 212.5,312.833 211.5,312C 213.833,311.667 216.167,311.333 218.5,311C 218.167,310.667 217.833,310.333 217.5,310C 220.801,307.626 224.467,306.96 228.5,308C 226.789,309.133 226.289,310.633 227,312.5C 230.167,315.667 233.333,318.833 236.5,322C 241.125,324.704 246.125,326.038 251.5,326C 250.272,326.779 249.272,327.779 248.5,329C 251.858,335.689 257.191,340.023 264.5,342C 267.746,342.588 270.746,341.921 273.5,340C 280.392,339.422 287.059,338.088 293.5,336C 292.643,335.311 291.977,334.478 291.5,333.5C 294.167,332.833 296.833,332.167 299.5,331.5C 298.5,330.833 297.5,330.167 296.5,329.5C 298.423,328.692 300.423,328.192 302.5,328C 299.146,326.702 296.812,324.536 295.5,321.5C 293.146,321.162 290.813,320.662 288.5,320C 287.289,318.887 287.289,317.72 288.5,316.5C 288.023,315.522 287.357,314.689 286.5,314C 282.279,313.625 278.279,312.625 274.5,311C 277.529,310.461 280.529,309.794 283.5,309C 284.711,308.107 284.711,307.274 283.5,306.5C 275.744,305.312 268.078,303.645 260.5,301.5C 261,301.167 261.5,300.833 262,300.5C 271.101,299.612 280.267,299.445 289.5,300C 291.301,299.683 291.634,299.016 290.5,298C 291.667,297.833 292.833,297.667 294,297.5C 296.665,298.452 299.165,299.785 301.5,301.5C 304.106,302.652 306.773,302.818 309.5,302C 313.212,301.405 316.545,300.072 319.5,298C 317.074,296.855 314.741,295.522 312.5,294C 315.833,293.333 319.167,293.333 322.5,294C 327.751,296.727 332.751,299.727 337.5,303C 339.847,303.436 342.181,303.936 344.5,304.5C 345.5,303.833 346.5,303.167 347.5,302.5C 351.688,303.507 355.688,305.007 359.5,307C 366.022,308.364 372.022,307.198 377.5,303.5C 376.092,302.757 374.759,301.923 373.5,301C 377.381,299.81 381.381,299.143 385.5,299C 389.046,298.287 391.046,296.12 391.5,292.5C 394.532,291.988 395.699,290.322 395,287.5C 390.554,286.263 386.054,285.097 381.5,284C 384.482,283.502 387.482,283.335 390.5,283.5C 390.36,281.876 391.027,280.71 392.5,280C 391.944,279.617 391.611,279.117 391.5,278.5C 394.768,277.076 397.934,275.409 401,273.5C 405.476,278.425 407.643,284.092 407.5,290.5C 404.808,289.118 401.974,288.118 399,287.5C 396.222,292.075 394.222,297.075 393,302.5C 391.983,320.405 394.483,337.739 400.5,354.5 Z"/></g>
<g><path style="opacity:0.541" fill="#aac69e" d="M 592.5,296.5 C 592.41,306.733 591.41,316.733 589.5,326.5C 589.854,316.293 590.854,306.293 592.5,296.5 Z"/></g>
<g><path style="opacity:1" fill="#d3eef4" d="M 140.5,318.5 C 136.833,318.5 133.167,318.5 129.5,318.5C 131.099,315.398 133.266,312.731 136,310.5C 139.055,311.611 141.888,313.111 144.5,315C 143.295,316.376 141.962,317.542 140.5,318.5 Z"/></g>
<g><path style="opacity:1" fill="#1d6bb7" d="M 351.5,314.5 C 341.394,337.609 325.061,354.942 302.5,366.5C 302.259,363.206 303.092,360.206 305,357.5C 311.481,351.596 318.148,345.929 325,340.5C 326.009,338.975 326.509,337.308 326.5,335.5C 321.987,334.372 317.487,334.372 313,335.5C 308.899,333.66 305.899,330.66 304,326.5C 301.12,318.755 297.786,311.422 294,304.5C 297.76,309.683 301.76,314.683 306,319.5C 307.127,322.377 307.794,325.377 308,328.5C 311.257,331.428 315.091,332.262 319.5,331C 326.018,327.497 332.518,323.997 339,320.5C 339.667,319.5 339.667,318.5 339,317.5C 336.81,315.612 334.977,313.445 333.5,311C 331.533,311.24 329.7,312.073 328,313.5C 326.395,312.899 325.062,311.899 324,310.5C 323.166,307.828 322.332,305.161 321.5,302.5C 322.167,302.167 322.833,301.833 323.5,301.5C 329.678,305.495 336.012,309.328 342.5,313C 345.695,313.181 348.695,313.681 351.5,314.5 Z"/></g>
<g><path style="opacity:1" fill="#45b2d6" d="M 129.5,318.5 C 133.167,318.5 136.833,318.5 140.5,318.5C 139.25,320.932 137.75,323.266 136,325.5C 132.926,323.929 130.76,321.596 129.5,318.5 Z"/></g>
<g><path style="opacity:1" fill="#1b6cbc" d="M 167.5,308.5 C 167.755,311.016 168.589,313.35 170,315.5C 188.894,346.036 216.394,361.703 252.5,362.5C 255.579,365.257 257.912,368.59 259.5,372.5C 257.085,373.814 254.252,374.481 251,374.5C 246.588,373.981 242.255,373.981 238,374.5C 233.908,374.019 230.075,372.852 226.5,371C 219.476,370.831 212.476,370.331 205.5,369.5C 191.447,362.284 178.947,352.951 168,341.5C 166.384,339.287 165.217,336.953 164.5,334.5C 164.368,325.565 165.368,316.899 167.5,308.5 Z"/></g>
<g><path style="opacity:1" fill="#4eb7d9" d="M 413.5,315.5 C 414.85,318.952 415.35,322.619 415,326.5C 411.363,329.784 408.196,333.451 405.5,337.5C 405.5,330.833 405.5,324.167 405.5,317.5C 408.01,318.783 410.677,319.783 413.5,320.5C 413.5,318.833 413.5,317.167 413.5,315.5 Z"/></g>
<g><path style="opacity:1" fill="#1b5d9e" d="M 351.5,314.5 C 352.458,314.953 353.292,315.619 354,316.5C 354.218,319.426 354.718,322.26 355.5,325C 357.464,325.624 359.131,325.124 360.5,323.5C 360.989,326.114 360.656,328.78 359.5,331.5C 359.702,333.989 359.202,336.323 358,338.5C 347.248,353.754 334.081,366.42 318.5,376.5C 318.66,374.801 318.494,373.134 318,371.5C 317.283,372.044 316.783,372.711 316.5,373.5C 312.303,374.596 308.303,376.262 304.5,378.5C 303.702,378.043 303.369,377.376 303.5,376.5C 303.658,373.098 303.324,369.764 302.5,366.5C 325.061,354.942 341.394,337.609 351.5,314.5 Z"/></g>
<g><path style="opacity:0.057" fill="#ebf2e9" d="M 544.5,326.5 C 546.163,328.438 546.829,330.772 546.5,333.5C 545.388,331.401 544.721,329.067 544.5,326.5 Z"/></g>
<g><path style="opacity:1" fill="#1a4b7b" d="M 400.5,354.5 C 401.15,354.804 401.817,355.137 402.5,355.5C 407.416,349.341 411.583,342.675 415,335.5C 414.762,346.332 413.262,356.999 410.5,367.5C 409.041,367.567 407.708,367.234 406.5,366.5C 404.402,365.086 403.402,365.752 403.5,368.5C 402.5,368.5 401.5,368.5 400.5,368.5C 400.53,367.503 400.03,366.836 399,366.5C 396.681,367.871 394.181,368.538 391.5,368.5C 391.5,369.5 391.5,370.5 391.5,371.5C 390.847,372.807 390.18,374.14 389.5,375.5C 390.824,378.198 390.824,380.864 389.5,383.5C 388.533,382.194 387.199,381.527 385.5,381.5C 387.228,384.158 388.228,386.825 388.5,389.5C 386.786,392.299 385.453,395.299 384.5,398.5C 381.659,400.892 378.325,402.392 374.5,403C 372.996,404.491 372.163,406.324 372,408.5C 370.871,410.141 369.371,411.141 367.5,411.5C 366.883,411.611 366.383,411.944 366,412.5C 363.061,410.603 359.895,409.77 356.5,410C 353.333,414.5 350.167,419 347,423.5C 347.177,429.557 348.01,435.557 349.5,441.5C 341.289,444.462 332.956,446.795 324.5,448.5C 322.407,448.514 320.574,447.848 319,446.5C 317.287,442.127 314.787,438.293 311.5,435C 309.167,434.333 306.833,434.333 304.5,435C 299.571,436.81 294.571,438.31 289.5,439.5C 288.379,428.259 284.712,417.926 278.5,408.5C 283.083,406.292 287.583,403.959 292,401.5C 292.687,399.432 292.52,397.432 291.5,395.5C 293.984,392.706 295.151,389.373 295,385.5C 297.333,383.833 299.667,382.167 302,380.5C 302.21,378.942 302.71,377.609 303.5,376.5C 303.369,377.376 303.702,378.043 304.5,378.5C 308.303,376.262 312.303,374.596 316.5,373.5C 313.612,376.55 310.278,379.05 306.5,381C 307.357,381.689 308.023,382.522 308.5,383.5C 307.248,385.001 306.248,386.668 305.5,388.5C 306.213,391.096 306.213,393.763 305.5,396.5C 307.144,396.714 308.644,396.38 310,395.5C 312.447,390.268 315.113,385.268 318,380.5C 318.49,379.207 318.657,377.873 318.5,376.5C 334.081,366.42 347.248,353.754 358,338.5C 359.202,336.323 359.702,333.989 359.5,331.5C 360.398,336.841 361.731,342.175 363.5,347.5C 364.814,346.687 365.981,345.687 367,344.5C 367.936,340.793 369.769,337.626 372.5,335C 375.433,333.729 378.099,332.062 380.5,330C 382.134,329.506 383.801,329.34 385.5,329.5C 385.927,332.376 386.594,335.209 387.5,338C 386.394,339.882 386.394,341.716 387.5,343.5C 389.105,342.413 389.771,343.079 389.5,345.5C 387.422,352.745 387.089,360.079 388.5,367.5C 389.192,366.975 389.692,366.308 390,365.5C 390.148,359.751 390.814,354.085 392,348.5C 393.014,352.099 393.847,355.765 394.5,359.5C 396.519,357.81 398.519,356.144 400.5,354.5 Z"/></g>
<g><path style="opacity:0.044" fill="#e8efe5" d="M 546.5,333.5 C 548.479,335.168 550.812,335.834 553.5,335.5C 551.712,336.622 549.712,336.789 547.5,336C 546.748,335.329 546.414,334.496 546.5,333.5 Z"/></g>
<g><path style="opacity:1" fill="#e4f0f3" d="M 133.5,372.5 C 132.883,372.389 132.383,372.056 132,371.5C 131.759,368.711 131.092,366.044 130,363.5C 126.833,360.333 123.667,357.167 120.5,354C 117.518,353.502 114.518,353.335 111.5,353.5C 108.833,351.833 106.167,350.167 103.5,348.5C 103.196,347.85 102.863,347.183 102.5,346.5C 109.917,345.072 117.251,345.239 124.5,347C 127.879,351.59 131.379,356.09 135,360.5C 135.809,364.695 135.309,368.695 133.5,372.5 Z"/></g>
<g><path style="opacity:1" fill="#6fb43a" d="M 367.5,345.5 C 371.575,348.514 371.408,351.181 367,353.5C 366.5,353.167 366,352.833 365.5,352.5C 367.171,350.49 367.838,348.157 367.5,345.5 Z"/></g>
<g><path style="opacity:1" fill="#49b8dc" d="M 103.5,348.5 C 106.167,350.167 108.833,351.833 111.5,353.5C 111.545,357.346 112.378,361.013 114,364.5C 118.685,368.096 123.851,370.429 129.5,371.5C 129.178,377.358 129.511,383.025 130.5,388.5C 130.103,389.525 129.437,389.692 128.5,389C 121.354,383.355 114.354,377.522 107.5,371.5C 105.587,363.971 104.254,356.305 103.5,348.5 Z"/></g>
<g><path style="opacity:1" fill="#c8f1f9" d="M 111.5,353.5 C 114.518,353.335 117.518,353.502 120.5,354C 123.667,357.167 126.833,360.333 130,363.5C 131.092,366.044 131.759,368.711 132,371.5C 132.383,372.056 132.883,372.389 133.5,372.5C 132.502,377.83 131.502,383.163 130.5,388.5C 129.511,383.025 129.178,377.358 129.5,371.5C 123.851,370.429 118.685,368.096 114,364.5C 112.378,361.013 111.545,357.346 111.5,353.5 Z"/></g>
<g><path style="opacity:1" fill="#173a54" d="M 456.5,353.5 C 461.984,353.481 463.65,355.981 461.5,361C 455.593,361.746 453.927,359.246 456.5,353.5 Z"/></g>
<g><path style="opacity:1" fill="#71b835" d="M 381.5,357.5 C 383.752,357.916 385.252,359.249 386,361.5C 386.185,365.656 387.018,369.656 388.5,373.5C 387.773,375.953 386.773,378.286 385.5,380.5C 383.22,377.854 382.887,374.854 384.5,371.5C 383.684,366.789 382.684,362.122 381.5,357.5 Z"/></g>
<g><path style="opacity:0.518" fill="#9ebf93" d="M 711.5,337.5 C 710.998,344.849 710.331,352.183 709.5,359.5C 697.322,359.828 685.322,359.495 673.5,358.5C 685.167,358.5 696.833,358.5 708.5,358.5C 708.941,351.286 709.941,344.286 711.5,337.5 Z"/></g>
<g><path style="opacity:1" fill="#49a345" d="M 408.5,349.5 C 409.478,349.811 410.145,350.478 410.5,351.5C 409.994,354.391 408.994,357.058 407.5,359.5C 408.326,360.451 408.492,361.451 408,362.5C 405.8,361.978 403.8,362.645 402,364.5C 401.167,364.167 400.333,363.833 399.5,363.5C 405.057,360.518 408.057,355.852 408.5,349.5 Z"/></g>
<g><path style="opacity:1" fill="#133752" d="M 426.5,361.5 C 435.293,365.064 443.96,368.897 452.5,373C 454.333,375.5 456.167,378 458,380.5C 458.798,382.259 458.631,383.926 457.5,385.5C 453.833,388.333 450.167,391.167 446.5,394C 443.165,396.291 440.332,395.791 438,392.5C 434.058,382.17 430.225,371.836 426.5,361.5 Z"/></g>
<g><path style="opacity:1" fill="#7ac72d" d="M 167.5,363.5 C 170.73,363.561 172.563,365.228 173,368.5C 175.016,366.209 177.183,366.209 179.5,368.5C 180.592,371.094 182.259,373.261 184.5,375C 189.318,375.113 193.984,375.947 198.5,377.5C 199.474,379.743 199.808,382.076 199.5,384.5C 200.038,386.117 200.371,387.784 200.5,389.5C 198.052,390.473 195.385,390.806 192.5,390.5C 192.511,388.983 193.177,387.816 194.5,387C 188.854,387.123 184.354,384.956 181,380.5C 179.973,377.246 178.473,374.246 176.5,371.5C 174.468,370.181 172.468,370.181 170.5,371.5C 169.5,368.833 168.5,366.167 167.5,363.5 Z"/></g>
<g><path style="opacity:1" fill="#449944" d="M 406.5,366.5 C 406.179,368.048 405.179,368.715 403.5,368.5C 403.402,365.752 404.402,365.086 406.5,366.5 Z"/></g>
<g><path style="opacity:1" fill="#54a93b" d="M 400.5,368.5 C 397.854,370.253 394.854,371.253 391.5,371.5C 391.5,370.5 391.5,369.5 391.5,368.5C 394.181,368.538 396.681,367.871 399,366.5C 400.03,366.836 400.53,367.503 400.5,368.5 Z"/></g>
<g><path style="opacity:1" fill="#52b237" d="M 192.5,390.5 C 187.703,390.879 183.036,390.379 178.5,389C 175.162,383.489 172.495,377.656 170.5,371.5C 172.468,370.181 174.468,370.181 176.5,371.5C 178.473,374.246 179.973,377.246 181,380.5C 184.354,384.956 188.854,387.123 194.5,387C 193.177,387.816 192.511,388.983 192.5,390.5 Z"/></g>
<g><path style="opacity:1" fill="#59b33c" d="M 318.5,376.5 C 318.657,377.873 318.49,379.207 318,380.5C 315.113,385.268 312.447,390.268 310,395.5C 308.644,396.38 307.144,396.714 305.5,396.5C 306.213,393.763 306.213,391.096 305.5,388.5C 306.248,386.668 307.248,385.001 308.5,383.5C 308.023,382.522 307.357,381.689 306.5,381C 310.278,379.05 313.612,376.55 316.5,373.5C 316.783,372.711 317.283,372.044 318,371.5C 318.494,373.134 318.66,374.801 318.5,376.5 Z"/></g>
<g><path style="opacity:1" fill="#c8e2eb" d="M 436.5,373.5 C 440.759,374.647 444.759,376.481 448.5,379C 450.211,380.133 450.711,381.633 450,383.5C 447.851,385.661 445.351,386.828 442.5,387C 439.81,382.788 437.81,378.288 436.5,373.5 Z"/></g>
<g><path style="opacity:0.101" fill="#c8dbc2" d="M 620.5,376.5 C 631.321,375.505 642.321,375.172 653.5,375.5C 653.768,377.099 653.434,378.432 652.5,379.5C 652.5,378.5 652.5,377.5 652.5,376.5C 641.833,376.5 631.167,376.5 620.5,376.5 Z"/></g>
<g><path style="opacity:1" fill="#1c6703" d="M 690.5,374.5 C 698.174,374.334 705.841,374.5 713.5,375C 729.336,379.169 738.503,389.335 741,405.5C 740.277,425.162 740.444,444.829 741.5,464.5C 741.564,480.229 740.73,495.895 739,511.5C 733.153,531.017 719.986,540.684 699.5,540.5C 675.697,537.862 662.864,524.528 661,500.5C 660.037,468.794 660.371,437.127 662,405.5C 664.168,388.173 673.668,377.84 690.5,374.5 Z M 698.5,404.5 C 703.624,403.464 706.79,405.464 708,410.5C 708.667,441.5 708.667,472.5 708,503.5C 705.59,510.983 701.257,512.317 695,507.5C 693.908,504.956 693.241,502.289 693,499.5C 692.333,471.167 692.333,442.833 693,414.5C 693.049,410.06 694.882,406.727 698.5,404.5 Z"/></g>
<g><path style="opacity:1" fill="#eff6f7" d="M 418.5,375.5 C 418.169,377.322 417.502,378.989 416.5,380.5C 413.482,380.335 410.482,380.502 407.5,381C 406.707,384.411 406.207,387.911 406,391.5C 403.055,394.189 399.889,394.855 396.5,393.5C 396.783,392.711 397.283,392.044 398,391.5C 398.499,386.177 398.666,380.844 398.5,375.5C 405.167,375.5 411.833,375.5 418.5,375.5 Z"/></g>
<g><path style="opacity:1" fill="#1d6704" d="M 605.5,399.5 C 605.184,405.75 605.85,411.75 607.5,417.5C 608.721,437.178 610.221,456.845 612,476.5C 614.105,442.907 616.938,409.574 620.5,376.5C 631.167,376.5 641.833,376.5 652.5,376.5C 652.5,377.5 652.5,378.5 652.5,379.5C 647.948,431.964 642.115,484.297 635,536.5C 631.851,538.362 628.351,539.029 624.5,538.5C 618.5,538.5 612.5,538.5 606.5,538.5C 603.167,538.5 599.833,538.5 596.5,538.5C 593.865,513.153 591.032,487.82 588,462.5C 584.774,487.762 582.274,513.095 580.5,538.5C 567.149,539.391 553.816,539.391 540.5,538.5C 534.132,484.525 528.132,430.525 522.5,376.5C 533.167,376.5 543.833,376.5 554.5,376.5C 557.456,409.848 560.623,443.181 564,476.5C 566.979,451.752 568.979,427.085 570,402.5C 571.526,394.379 572.693,386.212 573.5,378C 573.905,377.055 574.572,376.388 575.5,376C 584.851,375.168 594.184,375.335 603.5,376.5C 603.573,384.114 604.239,391.781 605.5,399.5 Z"/></g>
<g><path style="opacity:0.999" fill="#1a6601" d="M 781.5,538.5 C 772.5,538.5 763.5,538.5 754.5,538.5C 754.5,517.833 754.5,497.167 754.5,476.5C 754.217,454.507 753.884,432.507 753.5,410.5C 753.962,399.154 754.629,387.821 755.5,376.5C 774.819,375.11 794.152,375.277 813.5,377C 821.667,379.833 827.167,385.333 830,393.5C 834.405,409.868 834.405,426.201 830,442.5C 827.5,447.667 823.667,451.5 818.5,454C 824.818,456.443 828.985,460.943 831,467.5C 830.893,491.203 830.726,514.87 830.5,538.5C 820.167,538.5 809.833,538.5 799.5,538.5C 799.507,515.772 799.341,493.106 799,470.5C 798.727,468.671 797.893,467.171 796.5,466C 793.274,464.801 789.941,464.301 786.5,464.5C 786.716,489.119 786.716,513.786 786.5,538.5C 784.833,538.5 783.167,538.5 781.5,538.5 Z M 786.5,406.5 C 798.599,403.599 803.599,408.266 801.5,420.5C 803.92,433.076 798.92,438.41 786.5,436.5C 786.5,426.5 786.5,416.5 786.5,406.5 Z"/></g>
<g><path style="opacity:1" fill="#1a6601" d="M 844.5,376.5 C 855.167,376.5 865.833,376.5 876.5,376.5C 876.576,422.145 876.576,467.145 876.5,511.5C 887.5,511.5 898.5,511.5 909.5,511.5C 909.5,520.5 909.5,529.5 909.5,538.5C 887.5,538.5 865.5,538.5 843.5,538.5C 844.134,484.502 844.468,430.502 844.5,376.5 Z"/></g>
<g><path style="opacity:1" fill="#1a6601" d="M 919.5,375.5 C 936.515,375.467 953.515,375.967 970.5,377C 986.751,379.586 995.918,389.086 998,405.5C 998.267,428.507 998.767,451.507 999.5,474.5C 999.62,486.823 998.787,499.156 997,511.5C 993.89,527.279 984.39,536.113 968.5,538C 952.17,538.5 935.837,538.667 919.5,538.5C 919.329,484.029 919.329,429.695 919.5,375.5 Z M 951.5,404.5 C 954.85,404.335 958.183,404.502 961.5,405C 962.428,405.388 963.095,406.055 963.5,407C 964.104,409.584 964.937,412.084 966,414.5C 966.167,426 966.333,437.5 966.5,449C 966.12,467.866 965.953,486.7 966,505.5C 965.5,507.333 964.333,508.5 962.5,509C 958.94,510.237 955.273,510.737 951.5,510.5C 951.602,475.129 951.602,439.796 951.5,404.5 Z"/></g>
<g><path style="opacity:1" fill="#1e62a6" d="M 164.5,334.5 C 165.217,336.953 166.384,339.287 168,341.5C 178.947,352.951 191.447,362.284 205.5,369.5C 212.476,370.331 219.476,370.831 226.5,371C 230.075,372.852 233.908,374.019 238,374.5C 242.255,373.981 246.588,373.981 251,374.5C 254.252,374.481 257.085,373.814 259.5,372.5C 260.124,372.917 260.457,373.584 260.5,374.5C 259.031,377.722 258.531,381.056 259,384.5C 261.091,387.74 262.924,391.074 264.5,394.5C 242.021,396.476 220.354,393.142 199.5,384.5C 199.808,382.076 199.474,379.743 198.5,377.5C 193.984,375.947 189.318,375.113 184.5,375C 182.259,373.261 180.592,371.094 179.5,368.5C 177.183,366.209 175.016,366.209 173,368.5C 172.563,365.228 170.73,363.561 167.5,363.5C 165.76,353.914 164.76,344.248 164.5,334.5 Z"/></g>
<g><path style="opacity:1" fill="#58c0e1" d="M 418.5,375.5 C 420.109,381.279 420.609,387.279 420,393.5C 417.537,396.965 414.704,400.131 411.5,403C 405.328,403.217 399.662,401.717 394.5,398.5C 398.868,395.91 403.535,395.244 408.5,396.5C 415.882,393.738 418.548,388.405 416.5,380.5C 417.502,378.989 418.169,377.322 418.5,375.5 Z"/></g>
<g><path style="opacity:1" fill="#c8f1fa" d="M 416.5,380.5 C 418.548,388.405 415.882,393.738 408.5,396.5C 403.535,395.244 398.868,395.91 394.5,398.5C 394.062,398.565 393.728,398.399 393.5,398C 394.399,396.348 395.399,394.848 396.5,393.5C 399.889,394.855 403.055,394.189 406,391.5C 406.207,387.911 406.707,384.411 407.5,381C 410.482,380.502 413.482,380.335 416.5,380.5 Z"/></g>
<g><path style="opacity:1" fill="#64a63e" d="M 389.5,383.5 C 389.795,385.735 389.461,387.735 388.5,389.5C 388.228,386.825 387.228,384.158 385.5,381.5C 387.199,381.527 388.533,382.194 389.5,383.5 Z"/></g>
<g><path style="opacity:1" fill="#60c6e6" d="M 127.5,452.5 C 126.749,463.364 131.582,470.03 142,472.5C 143.5,472.167 145,471.833 146.5,471.5C 146.942,470.261 147.609,469.261 148.5,468.5C 148.5,469.167 148.5,469.833 148.5,470.5C 147.398,474.747 147.232,479.08 148,483.5C 148.333,482.833 148.667,482.167 149,481.5C 149.727,484.155 150.894,486.488 152.5,488.5C 156.631,484.888 160.297,480.888 163.5,476.5C 163.076,480.034 162.409,483.534 161.5,487C 161.528,488.07 161.861,488.903 162.5,489.5C 160.91,491.234 158.91,492.4 156.5,493C 140.292,495.062 128.292,488.896 120.5,474.5C 123.536,475.362 125.869,477.196 127.5,480C 128.167,480.667 128.833,480.667 129.5,480C 128.667,479.167 127.833,478.333 127,477.5C 125.688,473.051 123.854,468.884 121.5,465C 122.314,458.247 122.814,451.414 123,444.5C 124.115,440.271 125.781,436.271 128,432.5C 136.089,420.662 143.422,408.329 150,395.5C 151.584,394.139 153.418,393.472 155.5,393.5C 155.201,397.105 154.035,400.439 152,403.5C 144.748,415.001 137.748,426.668 131,438.5C 129.008,442.96 127.841,447.627 127.5,452.5 Z"/></g>
<g><path style="opacity:1" fill="#cef4fb" d="M 170.5,417.5 C 170.81,418.738 171.31,418.738 172,417.5C 174.213,413.075 176.379,408.741 178.5,404.5C 182.982,405.326 187.649,405.826 192.5,406C 194.205,408.954 195.538,412.121 196.5,415.5C 192.791,423.919 188.791,432.252 184.5,440.5C 185.002,441.521 185.668,441.688 186.5,441C 189.587,434.352 194.253,432.852 200.5,436.5C 194.84,447.823 188.673,458.823 182,469.5C 181.333,470.5 181.333,471.5 182,472.5C 189,461.167 196,449.833 203,438.5C 205.491,435.061 207.658,434.728 209.5,437.5C 201.774,452.62 193.274,467.287 184,481.5C 183.333,483.833 183.333,486.167 184,488.5C 184.383,489.056 184.883,489.389 185.5,489.5C 185.446,491.632 184.446,492.965 182.5,493.5C 181.586,486.52 180.753,479.52 180,472.5C 178.645,467.62 176.145,463.453 172.5,460C 170.086,458.115 167.419,457.448 164.5,458C 169.445,460.946 172.945,465.112 175,470.5C 176.486,481.461 176.819,492.461 176,503.5C 175.059,501.273 173.892,499.273 172.5,497.5C 172.941,490.493 173.108,483.493 173,476.5C 172.743,471.986 170.91,468.319 167.5,465.5C 166.47,473.695 164.803,481.695 162.5,489.5C 161.861,488.903 161.528,488.07 161.5,487C 162.409,483.534 163.076,480.034 163.5,476.5C 163.993,474.194 164.326,471.861 164.5,469.5C 164.774,460.696 160.774,458.529 152.5,463C 150.561,464.432 149.228,466.265 148.5,468.5C 147.609,469.261 146.942,470.261 146.5,471.5C 145,471.833 143.5,472.167 142,472.5C 131.582,470.03 126.749,463.364 127.5,452.5C 128.978,452.762 130.311,452.429 131.5,451.5C 140.599,437.221 149.099,422.555 157,407.5C 159.045,404.577 161.212,401.743 163.5,399C 166.353,398.341 168.02,399.508 168.5,402.5C 167.402,409.803 167.235,417.136 168,424.5C 169.043,422.167 169.876,419.834 170.5,417.5 Z"/></g>
<g><path style="opacity:1" fill="#f3f8f9" d="M 234.5,444.5 C 233.173,441.173 230.84,438.84 227.5,437.5C 223.818,437.335 220.152,437.501 216.5,438C 206.043,455.079 195.71,472.246 185.5,489.5C 184.883,489.389 184.383,489.056 184,488.5C 183.333,486.167 183.333,483.833 184,481.5C 193.274,467.287 201.774,452.62 209.5,437.5C 207.658,434.728 205.491,435.061 203,438.5C 196,449.833 189,461.167 182,472.5C 181.333,471.5 181.333,470.5 182,469.5C 188.673,458.823 194.84,447.823 200.5,436.5C 194.253,432.852 189.587,434.352 186.5,441C 185.668,441.688 185.002,441.521 184.5,440.5C 188.791,432.252 192.791,423.919 196.5,415.5C 195.538,412.121 194.205,408.954 192.5,406C 187.649,405.826 182.982,405.326 178.5,404.5C 179.029,402.417 180.029,400.583 181.5,399C 187.825,398.5 194.158,398.334 200.5,398.5C 201.662,404.463 202.662,410.463 203.5,416.5C 201.598,420.41 199.264,424.077 196.5,427.5C 206.817,428.332 217.151,428.832 227.5,429C 230.35,431.682 233.016,434.516 235.5,437.5C 234.833,437.833 234.167,438.167 233.5,438.5C 234.348,440.409 234.682,442.409 234.5,444.5 Z"/></g>
<g><path style="opacity:1" fill="#5cb735" d="M 384.5,398.5 C 384.929,399.953 385.096,401.619 385,403.5C 387.628,404.457 389.128,406.291 389.5,409C 388.325,412.19 386.325,414.857 383.5,417C 377.321,417.22 371.988,415.386 367.5,411.5C 369.371,411.141 370.871,410.141 372,408.5C 372.163,406.324 372.996,404.491 374.5,403C 378.325,402.392 381.659,400.892 384.5,398.5 Z"/></g>
<g><path style="opacity:1" fill="#1a4d81" d="M 199.5,384.5 C 220.354,393.142 242.021,396.476 264.5,394.5C 266.471,396.808 268.471,399.142 270.5,401.5C 262.783,402.682 255.116,404.182 247.5,406C 242.706,412.417 238.539,419.25 235,426.5C 229.536,420.405 222.702,417.738 214.5,418.5C 213.833,417.5 213.167,416.5 212.5,415.5C 210.68,408.282 209.18,400.948 208,393.5C 205.305,392.385 202.805,391.052 200.5,389.5C 200.371,387.784 200.038,386.117 199.5,384.5 Z"/></g>
<g><path style="opacity:0.057" fill="#cadbc3" d="M 605.5,399.5 C 606.81,405.288 607.477,411.288 607.5,417.5C 605.85,411.75 605.184,405.75 605.5,399.5 Z"/></g>
<g><path style="opacity:1" fill="#dff4f8" d="M 170.5,417.5 C 169.876,419.834 169.043,422.167 168,424.5C 167.235,417.136 167.402,409.803 168.5,402.5C 168.02,399.508 166.353,398.341 163.5,399C 161.212,401.743 159.045,404.577 157,407.5C 149.099,422.555 140.599,437.221 131.5,451.5C 130.311,452.429 128.978,452.762 127.5,452.5C 127.841,447.627 129.008,442.96 131,438.5C 137.748,426.668 144.748,415.001 152,403.5C 154.035,400.439 155.201,397.105 155.5,393.5C 153.418,393.472 151.584,394.139 150,395.5C 143.422,408.329 136.089,420.662 128,432.5C 125.781,436.271 124.115,440.271 123,444.5C 122.814,451.414 122.314,458.247 121.5,465C 123.854,468.884 125.688,473.051 127,477.5C 127.833,478.333 128.667,479.167 129.5,480C 128.833,480.667 128.167,480.667 127.5,480C 125.869,477.196 123.536,475.362 120.5,474.5C 118.85,471.248 118.516,467.915 119.5,464.5C 116.805,456.448 116.971,448.448 120,440.5C 128.906,422.345 139.072,405.011 150.5,388.5C 158.226,391.765 166.226,394.098 174.5,395.5C 173.045,402.778 171.712,410.111 170.5,417.5 Z"/></g>
<g><path style="opacity:1" fill="#eff5f6" d="M 273.5,448.5 C 273.062,448.565 272.728,448.399 272.5,448C 274.527,445.823 275.861,443.323 276.5,440.5C 275.252,436.17 273.585,432.003 271.5,428C 270.5,427.333 269.5,427.333 268.5,428C 265.256,431.75 261.589,434.917 257.5,437.5C 259.526,432.443 261.859,427.443 264.5,422.5C 261.216,421.343 257.882,421.176 254.5,422C 246.429,430.304 241.763,440.138 240.5,451.5C 239.5,451.167 238.833,450.5 238.5,449.5C 239.167,449.5 239.5,449.167 239.5,448.5C 240.641,446.451 240.641,444.451 239.5,442.5C 239.335,439.482 239.502,436.482 240,433.5C 244.376,426.581 248.876,419.748 253.5,413C 259.085,410.977 264.752,410.477 270.5,411.5C 275.704,419.573 279.537,428.239 282,437.5C 282.808,439.579 282.641,441.579 281.5,443.5C 278.816,445.193 276.149,446.86 273.5,448.5 Z"/></g>
<g><path style="opacity:1" fill="#173a55" d="M 440.5,413.5 C 447.564,413.352 448.897,415.852 444.5,421C 439.632,420.711 438.299,418.211 440.5,413.5 Z"/></g>
<g><path style="opacity:1" fill="#1b3e58" d="M 415.5,415.5 C 419.145,414.68 421.478,416.013 422.5,419.5C 420.705,423.607 418.205,424.273 415,421.5C 414.322,419.402 414.489,417.402 415.5,415.5 Z"/></g>
<g><path style="opacity:1" fill="#68ae33" d="M 212.5,415.5 C 213.167,416.5 213.833,417.5 214.5,418.5C 213.811,419.774 212.977,419.774 212,418.5C 211.26,417.251 211.427,416.251 212.5,415.5 Z"/></g>
<g><path style="opacity:1" fill="#dbecf0" d="M 370.5,438.5 C 370.037,435.518 369.704,432.518 369.5,429.5C 365.486,429.666 361.486,429.499 357.5,429C 356.244,428.583 355.577,427.75 355.5,426.5C 356.542,423.07 358.542,420.403 361.5,418.5C 366.402,419.951 371.069,421.951 375.5,424.5C 373.818,429.27 372.151,433.936 370.5,438.5 Z"/></g>
<g><path style="opacity:1" fill="#4bb5d9" d="M 355.5,426.5 C 355.577,427.75 356.244,428.583 357.5,429C 361.486,429.499 365.486,429.666 369.5,429.5C 369.704,432.518 370.037,435.518 370.5,438.5C 365.83,437.779 361.163,436.946 356.5,436C 354.307,432.962 353.973,429.796 355.5,426.5 Z"/></g>
<g><path style="opacity:1" fill="#dbf3f8" d="M 412.5,438.5 C 408.921,439.525 405.254,440.691 401.5,442C 402.167,442.667 402.833,443.333 403.5,444C 401.134,444.44 398.801,444.94 396.5,445.5C 390.991,445.125 385.658,444.458 380.5,443.5C 387.756,440.637 395.089,437.97 402.5,435.5C 405.976,436.104 409.309,437.104 412.5,438.5 Z"/></g>
<g><path style="opacity:1" fill="#dcf6fb" d="M 257.5,437.5 C 255.734,439.771 253.734,441.937 251.5,444C 252.451,444.718 252.617,445.551 252,446.5C 246.489,449.682 242.822,454.349 241,460.5C 237.615,464.217 234.615,468.217 232,472.5C 231.552,470.776 230.718,470.109 229.5,470.5C 232.109,465.615 234.443,460.615 236.5,455.5C 236.03,453.226 235.03,451.226 233.5,449.5C 224.749,463.083 215.416,476.25 205.5,489C 202.576,490.881 199.409,492.048 196,492.5C 192.449,491.639 188.949,490.639 185.5,489.5C 195.71,472.246 206.043,455.079 216.5,438C 220.152,437.501 223.818,437.335 227.5,437.5C 229.667,439.83 231.334,442.497 232.5,445.5C 233.568,446.434 234.901,446.768 236.5,446.5C 236.5,447.5 236.5,448.5 236.5,449.5C 237.323,452.072 238.989,453.239 241.5,453C 240.944,452.617 240.611,452.117 240.5,451.5C 241.763,440.138 246.429,430.304 254.5,422C 257.882,421.176 261.216,421.343 264.5,422.5C 261.859,427.443 259.526,432.443 257.5,437.5 Z"/></g>
<g><path style="opacity:1" fill="#79d2ed" d="M 412.5,438.5 C 414.359,439.594 416.359,440.427 418.5,441C 411.214,445.808 403.214,448.641 394.5,449.5C 395.806,448.533 396.473,447.199 396.5,445.5C 398.801,444.94 401.134,444.44 403.5,444C 402.833,443.333 402.167,442.667 401.5,442C 405.254,440.691 408.921,439.525 412.5,438.5 Z"/></g>
<g><path style="opacity:1" fill="#81cb54" d="M 227.5,437.5 C 230.84,438.84 233.173,441.173 234.5,444.5C 234.158,445.338 233.492,445.672 232.5,445.5C 231.334,442.497 229.667,439.83 227.5,437.5 Z"/></g>
<g><path style="opacity:1" fill="#87cb48" d="M 239.5,442.5 C 240.641,444.451 240.641,446.451 239.5,448.5C 238.711,448.217 238.044,447.717 237.5,447C 238.747,445.542 238.747,444.042 237.5,442.5C 237.97,441.537 238.637,441.537 239.5,442.5 Z"/></g>
<g><path style="opacity:1" fill="#e3f0f3" d="M 310.5,460.5 C 309.18,458.537 307.846,456.537 306.5,454.5C 305.608,452.286 303.942,451.286 301.5,451.5C 295.791,452.728 290.124,454.061 284.5,455.5C 277.125,456.554 269.791,457.887 262.5,459.5C 261.584,459.457 260.917,459.124 260.5,458.5C 273.994,452.333 287.994,447.333 302.5,443.5C 306.022,445.18 308.855,447.847 311,451.5C 311.4,454.884 311.233,457.884 310.5,460.5 Z"/></g>
<g><path style="opacity:1" fill="#319dca" d="M 380.5,443.5 C 385.658,444.458 390.991,445.125 396.5,445.5C 396.473,447.199 395.806,448.533 394.5,449.5C 387.706,448.808 381.04,447.475 374.5,445.5C 376.495,444.705 378.495,444.039 380.5,443.5 Z"/></g>
<g><path style="opacity:1" fill="#a6eafa" d="M 273.5,448.5 C 269.922,450.891 266.422,453.558 263,456.5C 262.902,454.381 262.069,452.714 260.5,451.5C 259.203,453.973 259.203,456.307 260.5,458.5C 260.917,459.124 261.584,459.457 262.5,459.5C 269.791,457.887 277.125,456.554 284.5,455.5C 276.038,470.473 266.538,484.807 256,498.5C 253.21,495.009 250.043,491.842 246.5,489C 241.5,488.333 236.5,488.333 231.5,489C 228.279,490.104 225.612,491.937 223.5,494.5C 219.388,496.728 215.388,499.228 211.5,502C 208.846,502.941 206.179,503.774 203.5,504.5C 194.368,504.769 187.368,501.102 182.5,493.5C 184.446,492.965 185.446,491.632 185.5,489.5C 188.949,490.639 192.449,491.639 196,492.5C 199.409,492.048 202.576,490.881 205.5,489C 215.416,476.25 224.749,463.083 233.5,449.5C 235.03,451.226 236.03,453.226 236.5,455.5C 234.443,460.615 232.109,465.615 229.5,470.5C 230.718,470.109 231.552,470.776 232,472.5C 234.615,468.217 237.615,464.217 241,460.5C 242.822,454.349 246.489,449.682 252,446.5C 252.617,445.551 252.451,444.718 251.5,444C 253.734,441.937 255.734,439.771 257.5,437.5C 261.589,434.917 265.256,431.75 268.5,428C 269.5,427.333 270.5,427.333 271.5,428C 273.585,432.003 275.252,436.17 276.5,440.5C 275.861,443.323 274.527,445.823 272.5,448C 272.728,448.399 273.062,448.565 273.5,448.5 Z"/></g>
<g><path style="opacity:1" fill="#92d259" d="M 236.5,449.5 C 237.167,449.5 237.833,449.5 238.5,449.5C 238.833,450.5 239.5,451.167 240.5,451.5C 240.611,452.117 240.944,452.617 241.5,453C 238.989,453.239 237.323,452.072 236.5,449.5 Z"/></g>
<g><path style="opacity:1" fill="#6cd3f2" d="M 306.5,454.5 C 305.952,456.15 305.619,457.817 305.5,459.5C 295.496,474.347 285.663,489.347 276,504.5C 272.701,507.551 269.201,510.218 265.5,512.5C 260.833,512.5 256.167,512.5 251.5,512.5C 252.496,507.537 252.663,502.537 252,497.5C 244.931,487.554 236.931,486.887 228,495.5C 223.867,501.433 220.534,507.766 218,514.5C 216.961,515.71 215.794,516.71 214.5,517.5C 214.53,516.503 214.03,515.836 213,515.5C 210.67,517.043 208.17,517.543 205.5,517C 213.779,511.251 219.779,503.751 223.5,494.5C 225.612,491.937 228.279,490.104 231.5,489C 236.5,488.333 241.5,488.333 246.5,489C 250.043,491.842 253.21,495.009 256,498.5C 266.538,484.807 276.038,470.473 284.5,455.5C 290.124,454.061 295.791,452.728 301.5,451.5C 303.942,451.286 305.608,452.286 306.5,454.5 Z"/></g>
<g><path style="opacity:1" fill="#153954" d="M 354.5,453.5 C 361.358,456.197 365.525,461.197 367,468.5C 368.378,475.118 368.711,481.785 368,488.5C 361.566,493.424 355.066,493.591 348.5,489C 345.598,485.276 342.598,481.776 339.5,478.5C 344.092,469.911 349.092,461.578 354.5,453.5 Z"/></g>
<g><path style="opacity:1" fill="#49b7dc" d="M 306.5,454.5 C 307.846,456.537 309.18,458.537 310.5,460.5C 309.134,463.421 308.301,466.421 308,469.5C 310.698,465.633 313.198,461.633 315.5,457.5C 320.5,456.167 325.5,456.167 330.5,457.5C 330.376,458.107 330.043,458.44 329.5,458.5C 329.5,457.833 329.167,457.5 328.5,457.5C 326.533,457.261 324.699,457.594 323,458.5C 310.61,478.784 297.11,498.284 282.5,517C 280.922,518.094 279.255,518.928 277.5,519.5C 287.24,504.362 296.74,489.029 306,473.5C 306.354,469.646 306.854,465.812 307.5,462C 307.316,460.624 306.649,459.791 305.5,459.5C 305.619,457.817 305.952,456.15 306.5,454.5 Z"/></g>
<g><path style="opacity:1" fill="#74d6f3" d="M 328.5,457.5 C 315.432,477.546 302.432,497.546 289.5,517.5C 281.814,524.955 272.48,528.288 261.5,527.5C 267.078,525.378 272.411,522.711 277.5,519.5C 279.255,518.928 280.922,518.094 282.5,517C 297.11,498.284 310.61,478.784 323,458.5C 324.699,457.594 326.533,457.261 328.5,457.5 Z"/></g>
<g><path style="opacity:1" fill="#143d5a" d="M 164.5,469.5 C 163.31,467.645 161.977,465.812 160.5,464C 158.5,463.333 156.5,463.333 154.5,464C 152.6,466.335 150.6,468.502 148.5,470.5C 148.5,469.833 148.5,469.167 148.5,468.5C 149.228,466.265 150.561,464.432 152.5,463C 160.774,458.529 164.774,460.696 164.5,469.5 Z"/></g>
<g><path style="opacity:1" fill="#279dcc" d="M 305.5,459.5 C 306.649,459.791 307.316,460.624 307.5,462C 306.854,465.812 306.354,469.646 306,473.5C 296.74,489.029 287.24,504.362 277.5,519.5C 272.411,522.711 267.078,525.378 261.5,527.5C 258.167,527.5 254.833,527.5 251.5,527.5C 258.221,524.445 262.888,519.445 265.5,512.5C 269.201,510.218 272.701,507.551 276,504.5C 285.663,489.347 295.496,474.347 305.5,459.5 Z"/></g>
<g><path style="opacity:1" fill="#0c79b5" d="M 164.5,469.5 C 164.326,471.861 163.993,474.194 163.5,476.5C 160.297,480.888 156.631,484.888 152.5,488.5C 150.894,486.488 149.727,484.155 149,481.5C 148.667,482.167 148.333,482.833 148,483.5C 147.232,479.08 147.398,474.747 148.5,470.5C 150.6,468.502 152.6,466.335 154.5,464C 156.5,463.333 158.5,463.333 160.5,464C 161.977,465.812 163.31,467.645 164.5,469.5 Z"/></g>
<g><path style="opacity:1" fill="#c3edf6" d="M 360.5,480.5 C 357.131,477.979 353.464,476.312 349.5,475.5C 350.713,471.407 352.713,467.741 355.5,464.5C 357.527,465.693 359.027,467.36 360,469.5C 360.499,473.152 360.665,476.818 360.5,480.5 Z"/></g>
<g><path style="opacity:1" fill="#5dc7e7" d="M 182.5,493.5 C 187.368,501.102 194.368,504.769 203.5,504.5C 201.345,508.139 199.178,511.806 197,515.5C 195.174,517.074 193.007,517.907 190.5,518C 191.328,518.915 192.328,519.581 193.5,520C 192.906,520.464 192.239,520.631 191.5,520.5C 184.223,518.741 178.389,514.741 174,508.5C 172.058,504.907 171.558,501.241 172.5,497.5C 173.892,499.273 175.059,501.273 176,503.5C 176.819,492.461 176.486,481.461 175,470.5C 172.945,465.112 169.445,460.946 164.5,458C 167.419,457.448 170.086,458.115 172.5,460C 176.145,463.453 178.645,467.62 180,472.5C 180.753,479.52 181.586,486.52 182.5,493.5 Z"/></g>
<g><path style="opacity:1" fill="#bde4e7" d="M 328.5,457.5 C 329.167,457.5 329.5,457.833 329.5,458.5C 316.896,478.723 303.563,498.389 289.5,517.5C 302.432,497.546 315.432,477.546 328.5,457.5 Z"/></g>
<g><path style="opacity:0.037" fill="#99bc8f" d="M 754.5,476.5 C 754.5,497.167 754.5,517.833 754.5,538.5C 763.5,538.5 772.5,538.5 781.5,538.5C 772.348,539.494 763.015,539.827 753.5,539.5C 753.169,518.327 753.503,497.327 754.5,476.5 Z"/></g>
<g><path style="opacity:1" fill="#4db9dc" d="M 349.5,475.5 C 353.464,476.312 357.131,477.979 360.5,480.5C 360.5,481.833 360.5,483.167 360.5,484.5C 355.457,485.569 351.623,483.903 349,479.5C 348.235,477.934 348.402,476.601 349.5,475.5 Z"/></g>
<g><path style="opacity:1" fill="#1a3d57" d="M 333.5,487.5 C 339.555,486.942 340.888,489.109 337.5,494C 331.738,494.418 330.404,492.251 333.5,487.5 Z"/></g>
<g><path style="opacity:1" fill="#c7edf6" d="M 251.5,512.5 C 248.835,516.161 245.502,519.161 241.5,521.5C 240.893,521.376 240.56,521.043 240.5,520.5C 244.567,515.692 247.567,510.359 249.5,504.5C 249.576,494.414 244.909,491.247 235.5,495C 229.603,500.9 224.436,507.4 220,514.5C 218.223,516.79 216.056,518.457 213.5,519.5C 213.833,518.833 214.167,518.167 214.5,517.5C 215.794,516.71 216.961,515.71 218,514.5C 220.534,507.766 223.867,501.433 228,495.5C 236.931,486.887 244.931,487.554 252,497.5C 252.663,502.537 252.496,507.537 251.5,512.5 Z"/></g>
<g><path style="opacity:1" fill="#2b9cca" d="M 223.5,494.5 C 219.779,503.751 213.779,511.251 205.5,517C 208.17,517.543 210.67,517.043 213,515.5C 214.03,515.836 214.53,516.503 214.5,517.5C 214.167,518.167 213.833,518.833 213.5,519.5C 206.314,523.018 198.981,523.352 191.5,520.5C 192.239,520.631 192.906,520.464 193.5,520C 192.328,519.581 191.328,518.915 190.5,518C 193.007,517.907 195.174,517.074 197,515.5C 199.178,511.806 201.345,508.139 203.5,504.5C 206.179,503.774 208.846,502.941 211.5,502C 215.388,499.228 219.388,496.728 223.5,494.5 Z"/></g>
<g><path style="opacity:1" fill="#0a7ab7" d="M 249.5,504.5 C 247.567,510.359 244.567,515.692 240.5,520.5C 239.577,521.303 238.577,521.47 237.5,521C 236.074,518.227 234.74,515.393 233.5,512.5C 233.043,511.702 232.376,511.369 231.5,511.5C 232.771,506.462 235.438,502.296 239.5,499C 244.651,497.67 247.985,499.503 249.5,504.5 Z"/></g>
<g><path style="opacity:1" fill="#42b2d9" d="M 231.5,511.5 C 232.376,511.369 233.043,511.702 233.5,512.5C 234.74,515.393 236.074,518.227 237.5,521C 238.577,521.47 239.577,521.303 240.5,520.5C 240.56,521.043 240.893,521.376 241.5,521.5C 245.502,519.161 248.835,516.161 251.5,512.5C 256.167,512.5 260.833,512.5 265.5,512.5C 262.888,519.445 258.221,524.445 251.5,527.5C 244.825,527.666 238.158,527.5 231.5,527C 229.913,526.138 228.246,525.471 226.5,525C 225.483,523.951 225.316,522.784 226,521.5C 228.099,518.3 229.933,514.967 231.5,511.5 Z"/></g>
<g><path style="opacity:1" fill="#a7cfe1" d="M 176.5,529.5 C 173.805,532.451 174.138,535.118 177.5,537.5C 154.387,538.309 131.387,537.142 108.5,534C 106.606,532.921 106.273,531.587 107.5,530C 110.424,529.012 113.424,528.346 116.5,528C 135.823,526.839 155.157,526.505 174.5,527C 175.756,527.417 176.423,528.25 176.5,529.5 Z"/></g>
<g><path style="opacity:1" fill="#a5cee1" d="M 345.5,526.5 C 369.886,525.974 394.219,526.808 418.5,529C 421.124,529.576 421.791,530.91 420.5,533C 414.968,534.726 409.301,535.726 403.5,536C 386.503,536.672 369.503,537.172 352.5,537.5C 353.822,535.689 354.322,533.689 354,531.5C 351.318,529.415 348.484,527.748 345.5,526.5 Z"/></g>
<g><path style="opacity:0.056" fill="#cbdcc4" d="M 606.5,538.5 C 612.5,538.5 618.5,538.5 624.5,538.5C 621.64,539.244 618.64,539.911 615.5,540.5C 612.36,539.911 609.36,539.244 606.5,538.5 Z"/></g>
<g><path style="opacity:1" fill="#4b4b4b" d="M 409.5,542.5 C 411.527,542.338 413.527,542.505 415.5,543C 416.337,544.011 416.67,545.178 416.5,546.5C 415.127,546.343 413.793,546.51 412.5,547C 418.126,549.487 418.792,552.82 414.5,557C 412.5,557.667 410.5,557.667 408.5,557C 407.663,555.989 407.33,554.822 407.5,553.5C 408.93,553.421 410.264,553.754 411.5,554.5C 412.308,554.192 412.975,553.692 413.5,553C 411.391,551.859 409.558,550.359 408,548.5C 407.252,546.16 407.752,544.16 409.5,542.5 Z"/></g>
<g><path style="opacity:1" fill="#3d3d3d" d="M 417.5,543.5 C 425.667,540.147 429.667,542.981 429.5,552C 429.507,553.812 428.84,555.312 427.5,556.5C 424.634,557.795 421.801,557.795 419,556.5C 418.825,551.981 418.325,547.647 417.5,543.5 Z M 422.5,551.5 C 425.957,551.667 426.29,552.667 423.5,554.5C 422.614,553.675 422.281,552.675 422.5,551.5 Z"/></g>
<g><path style="opacity:0.541" fill="#bcbcbc" d="M 439.5,543.5 C 436.833,543.5 434.167,543.5 431.5,543.5C 431.5,547.833 431.5,552.167 431.5,556.5C 433.833,556.5 436.167,556.5 438.5,556.5C 436.052,557.473 433.385,557.806 430.5,557.5C 430.5,552.5 430.5,547.5 430.5,542.5C 433.713,542.19 436.713,542.523 439.5,543.5 Z"/></g>
<g><path style="opacity:1" fill="#292929" d="M 439.5,543.5 C 443.575,546.367 444.408,550.034 442,554.5C 441.184,555.823 440.017,556.489 438.5,556.5C 436.167,556.5 433.833,556.5 431.5,556.5C 431.5,552.167 431.5,547.833 431.5,543.5C 434.167,543.5 436.833,543.5 439.5,543.5 Z M 434.5,545.5 C 439.182,545.875 440.516,548.208 438.5,552.5C 437.672,553.415 436.672,554.081 435.5,554.5C 434.516,551.572 434.183,548.572 434.5,545.5 Z"/></g>
<g><path style="opacity:0.983" fill="#484848" d="M 472.5,554.5 C 472.586,555.496 472.252,556.329 471.5,557C 468.518,557.498 465.518,557.665 462.5,557.5C 462.681,553.305 464.347,549.805 467.5,547C 465.866,546.506 464.199,546.34 462.5,546.5C 462.33,545.178 462.663,544.011 463.5,543C 470.091,540.756 472.591,542.923 471,549.5C 469.954,551.09 468.787,552.59 467.5,554C 469.134,554.494 470.801,554.66 472.5,554.5 Z"/></g>
<g><path style="opacity:0.997" fill="#464646" d="M 472.5,554.5 C 472.249,551.091 472.583,547.758 473.5,544.5C 479.683,540.822 483.017,542.656 483.5,550C 482.332,557.961 478.666,559.461 472.5,554.5 Z M 477.5,545.5 C 479.026,546.492 479.693,547.992 479.5,550C 478.5,556 477.5,556 476.5,550C 476.605,548.408 476.939,546.908 477.5,545.5 Z"/></g>
<g><path style="opacity:0.983" fill="#484848" d="M 494.5,554.5 C 494.586,555.496 494.252,556.329 493.5,557C 490.518,557.498 487.518,557.665 484.5,557.5C 484.681,553.305 486.347,549.805 489.5,547C 487.866,546.506 486.199,546.34 484.5,546.5C 484.33,545.178 484.663,544.011 485.5,543C 492.091,540.756 494.591,542.923 493,549.5C 491.954,551.09 490.787,552.59 489.5,554C 491.134,554.494 492.801,554.66 494.5,554.5 Z"/></g>
<g><path style="opacity:0.976" fill="#333333" d="M 505.5,553.5 C 503.952,553.821 503.285,554.821 503.5,556.5C 502.053,557.885 501.053,557.552 500.5,555.5C 499.448,553.744 497.781,553.077 495.5,553.5C 495.5,552.167 495.5,550.833 495.5,549.5C 496.52,546.14 498.52,543.473 501.5,541.5C 502.086,541.709 502.586,542.043 503,542.5C 503.681,546.221 504.514,549.887 505.5,553.5 Z M 499.5,547.5 C 500.782,548.708 500.782,550.042 499.5,551.5C 498.708,550.3 498.708,548.967 499.5,547.5 Z"/></g>
<g><path style="opacity:0.016" fill="#d6d6d6" d="M 423.5,548.5 C 423.167,547.167 422.833,547.167 422.5,548.5C 421.566,547.432 421.232,546.099 421.5,544.5C 423.635,544.147 424.968,544.98 425.5,547C 425.164,548.03 424.497,548.53 423.5,548.5 Z"/></g>
<g><path style="opacity:1" fill="#3a3a3a" d="M 456.5,556.5 C 453.833,556.5 451.167,556.5 448.5,556.5C 443.183,551.788 443.183,546.954 448.5,542C 457.152,539.712 460.985,542.879 460,551.5C 459.777,553.881 458.61,555.547 456.5,556.5 Z M 457.5,547.5 C 457.5,548.833 457.5,550.167 457.5,551.5C 455.917,550.373 453.917,550.373 451.5,551.5C 451.5,550.167 451.5,548.833 451.5,547.5C 453.703,547.065 455.703,547.065 457.5,547.5 Z"/></g>
<g><path style="opacity:1" fill="#232323" d="M 451.5,547.5 C 451.5,548.833 451.5,550.167 451.5,551.5C 452.263,552.268 453.263,552.768 454.5,553C 452.402,553.678 450.402,553.511 448.5,552.5C 448.5,551.167 448.5,549.833 448.5,548.5C 449.706,545.861 451.706,545.028 454.5,546C 453.263,546.232 452.263,546.732 451.5,547.5 Z"/></g>
<g><path style="opacity:1" fill="#b3b3b3" d="M 457.5,547.5 C 455.703,547.065 453.703,547.065 451.5,547.5C 452.263,546.732 453.263,546.232 454.5,546C 451.706,545.028 449.706,545.861 448.5,548.5C 447.596,549.209 447.263,550.209 447.5,551.5C 446.188,545.315 448.855,542.815 455.5,544C 456.823,544.816 457.489,545.983 457.5,547.5 Z"/></g>
<g><path style="opacity:0.83" fill="#c3c3c3" d="M 495.5,549.5 C 495.5,550.833 495.5,552.167 495.5,553.5C 497.781,553.077 499.448,553.744 500.5,555.5C 498.565,554.85 496.565,554.517 494.5,554.5C 494.216,552.585 494.549,550.919 495.5,549.5 Z"/></g>
<g><path style="opacity:1" fill="#b4b4b4" d="M 457.5,551.5 C 456.758,554.138 454.925,555.471 452,555.5C 449.817,555.478 448.317,554.478 447.5,552.5C 447.833,552.5 448.167,552.5 448.5,552.5C 450.402,553.511 452.402,553.678 454.5,553C 453.263,552.768 452.263,552.268 451.5,551.5C 453.917,550.373 455.917,550.373 457.5,551.5 Z"/></g>
<g><path style="opacity:0.19" fill="#f7f7f7" d="M 505.5,553.5 C 505.068,554.71 504.401,555.71 503.5,556.5C 503.285,554.821 503.952,553.821 505.5,553.5 Z"/></g>
<g><path style="opacity:0.901" fill="#b2b2b2" d="M 448.5,556.5 C 451.167,556.5 453.833,556.5 456.5,556.5C 453.956,558.714 451.289,558.714 448.5,556.5 Z"/></g>
</svg>
