<svg xmlns="http://www.w3.org/2000/svg" xmlns:xlink="http://www.w3.org/1999/xlink" width="1000" zoomAndPan="magnify" viewBox="0 0 750 749.999995" height="1000" preserveAspectRatio="xMidYMid meet" version="1.0"><defs><clipPath id="f3a8a955bf"><path d="M 144 33.308594 L 301 33.308594 L 301 213 L 144 213 Z M 144 33.308594 " clip-rule="nonzero"/></clipPath><clipPath id="4740c1df69"><path d="M 427 374 L 725 374 L 725 716.558594 L 427 716.558594 Z M 427 374 " clip-rule="nonzero"/></clipPath><clipPath id="035d0f80bc"><path d="M 277 33.308594 L 641 33.308594 L 641 271 L 277 271 Z M 277 33.308594 " clip-rule="nonzero"/></clipPath></defs><path fill="#009748" d="M 150.707031 604.144531 C 151.003906 604.644531 173.65625 649.972656 352.359375 636.296875 C 329.148438 607.789062 307.886719 581.65625 298.515625 545.730469 C 301.515625 538.199219 305.070312 531.210938 309.058594 524.625 C 273.714844 509.464844 258.40625 492.972656 243.640625 477.453125 C 211.503906 475.488281 186.609375 468.050781 175.671875 452.878906 C 137.773438 484.242188 138.140625 569.9375 150.707031 604.144531 " fill-opacity="1" fill-rule="evenodd"/><path fill="#006b30" d="M 299.785156 543.988281 C 281.050781 535.890625 242.664062 519.109375 220.253906 474.707031 C 227.601562 476.476562 235.132812 476.976562 240.566406 476.722656 C 240.566406 476.722656 273.234375 513.738281 310.402344 525.917969 L 299.785156 543.988281 " fill-opacity="1" fill-rule="evenodd"/><path fill="#006b30" d="M 150.707031 604.144531 C 164.773438 628.503906 214.65625 633.285156 240.34375 635.992188 C 207.808594 586.449219 183.953125 522.773438 198.710938 468.652344 C 192.71875 466.140625 188.890625 463.644531 186.203125 462.007812 C 144.203125 517.667969 138.140625 569.9375 150.707031 604.144531 " fill-opacity="1" fill-rule="evenodd"/><path fill="#009748" d="M 277.917969 36.972656 C 277.335938 36.972656 226.75 33.929688 149.242188 195.511719 C 185.542969 189.660156 218.808594 184.316406 254.613281 194.167969 C 258.96875 199.671875 262.761719 205.351562 266.101562 211.160156 C 286.761719 196.273438 308.507812 181.671875 345.847656 174 C 362.230469 150.964844 379.46875 135.945312 396.457031 134.214844 C 388.242188 85.71875 313.832031 43.1875 277.917969 36.972656 " fill-opacity="1" fill-rule="evenodd"/><path fill="#006b30" d="M 257.789062 196.773438 C 257.789062 196.773438 303.632812 159.03125 357.84375 158.023438 C 357.84375 158.023438 350.242188 166.125 346.445312 173.726562 C 346.445312 173.726562 294.769531 185.121094 265.644531 211.210938 L 257.789062 196.773438 " fill-opacity="1" fill-rule="evenodd"/><path fill="#006b30" d="M 277.917969 36.972656 C 249.777344 36.972656 220.703125 77.773438 205.519531 98.664062 C 264.695312 95.265625 331.773438 106.445312 371.269531 146.28125 C 376.449219 142.355469 380.519531 140.28125 383.277344 138.773438 C 356.074219 74.578125 313.832031 43.1875 277.917969 36.972656 " fill-opacity="1" fill-rule="evenodd"/><path fill="#009748" d="M 721.226562 379.476562 C 721.378906 378.917969 737.40625 330.839844 601.375 214.171875 C 597.628906 250.742188 594.179688 284.257812 575.394531 316.277344 C 571.425781 317.988281 567.457031 319.484375 563.476562 320.777344 C 568.726562 343.222656 569.960938 373.667969 561.269531 398.238281 C 585.429688 424.21875 599.808594 449.023438 596.601562 468.785156 C 645.574219 473.402344 705.921875 412.546875 721.226562 379.476562 " fill-opacity="1" fill-rule="evenodd"/><path fill="#006b30" d="M 578.882812 309.605469 C 583.179688 324.542969 596.683594 365.140625 575.761719 415.140625 C 571.832031 409.675781 567.476562 403.265625 562.050781 399.898438 C 564.71875 387.578125 570.578125 358.261719 564.269531 320.085938 L 576.542969 316.839844 L 578.882812 309.605469 " fill-opacity="1" fill-rule="evenodd"/><path fill="#006b30" d="M 721.226562 379.476562 C 728.511719 352.300781 696.617188 313.652344 680.367188 293.589844 C 668.335938 351.617188 640.167969 413.503906 591.460938 441.34375 C 593.914062 447.355469 594.871094 451.824219 595.605469 454.886719 C 664.664062 445.230469 705.921875 412.546875 721.226562 379.476562 " fill-opacity="1" fill-rule="evenodd"/><path fill="#05a1e6" d="M 382.410156 170.792969 C 387.867188 170.792969 393.269531 171.039062 398.613281 171.507812 C 403.40625 183.898438 408.109375 197.433594 412.667969 212.21875 C 391.550781 221 362.851562 236.363281 338.703125 256.796875 C 408.269531 255.441406 469.484375 252.441406 540.578125 267.804688 C 541.136719 266.074219 541.707031 264.355469 542.289062 262.636719 C 558.265625 289.996094 567.433594 321.824219 567.433594 355.789062 C 567.433594 395.960938 554.621094 433.140625 532.863281 463.472656 C 527.726562 463.789062 522.464844 464.054688 517.050781 464.246094 C 514.027344 441.597656 506.617188 409.890625 493.125 381.277344 C 480.414062 432.683594 469.882812 479.660156 450.910156 527.679688 C 429.722656 536.132812 406.613281 540.792969 382.410156 540.792969 C 305.375 540.792969 239.335938 493.695312 211.492188 426.742188 C 218.636719 418.101562 226.492188 409.148438 235.132812 399.847656 C 253.289062 413.726562 280.949219 430.914062 310.714844 441.597656 C 275.535156 383.3125 242.988281 332.742188 220.773438 265.730469 C 252.414062 209.09375 312.933594 170.792969 382.410156 170.792969 " fill-opacity="1" fill-rule="evenodd"/><path fill="#115fa2" d="M 450.910156 527.679688 C 429.722656 536.132812 406.613281 540.792969 382.410156 540.792969 C 305.375 540.792969 239.335938 493.683594 211.492188 426.730469 C 213.203125 424.675781 214.941406 422.597656 216.734375 420.503906 C 251.773438 446.675781 295.238281 462.179688 342.335938 462.179688 C 398.683594 462.179688 449.851562 439.980469 487.589844 403.855469 C 477.105469 446.632812 467.070312 486.773438 450.910156 527.679688 Z M 550.746094 278.917969 C 561.460938 302.328125 567.433594 328.355469 567.433594 355.789062 C 567.433594 395.960938 554.621094 433.140625 532.863281 463.472656 C 527.726562 463.789062 522.464844 464.054688 517.050781 464.246094 C 514.433594 444.628906 508.523438 418.234375 498.234375 392.929688 C 526.269531 361.914062 545.1875 322.496094 550.746094 278.917969 " fill-opacity="1" fill-rule="evenodd"/><path fill="#fddf4c" d="M 266.945312 264.882812 C 266.945312 264.882812 267.578125 247.464844 270.621094 245.949219 C 273.664062 244.421875 273.785156 247.34375 274.679688 252.675781 C 275.566406 258.015625 277.714844 276.1875 280.886719 280.257812 C 284.054688 284.328125 283.542969 291.066406 281.011719 293.984375 C 278.476562 296.90625 280.378906 300.46875 286.972656 300.722656 C 293.558594 300.976562 296.347656 304.527344 298.371094 307.324219 C 300.40625 310.125 311.804688 310.378906 311.804688 310.378906 C 311.804688 310.378906 318.523438 302.757812 313.585938 295.632812 C 308.640625 288.519531 307.753906 287.757812 307.125 282.671875 C 306.484375 277.59375 310.921875 273.136719 313.453125 267.804688 C 315.988281 262.460938 331.90625 234.449219 333.683594 226.097656 C 335.457031 217.742188 326.082031 190.890625 313.667969 190.890625 C 301.261719 190.890625 282.914062 204.007812 282.914062 204.007812 C 282.914062 204.007812 277.96875 210.621094 274.171875 213.796875 C 270.367188 216.96875 262.507812 221.671875 258.714844 228.152344 C 254.90625 234.632812 259.210938 237.808594 261.113281 242.894531 C 263.019531 247.972656 255.414062 261.199219 260.484375 269.332031 C 265.550781 277.460938 267.070312 276.1875 267.070312 276.1875 L 266.945312 264.882812 " fill-opacity="1" fill-rule="evenodd"/><path fill="#fddf4c" d="M 425.101562 527.445312 C 425.101562 527.445312 417.125 531.757812 409.269531 535.707031 C 401.410156 539.644531 391.398438 537.355469 391.398438 537.355469 C 391.398438 537.355469 396.71875 526.425781 399.121094 524.015625 C 401.535156 521.59375 405.839844 519.8125 406.480469 512.953125 C 407.109375 506.097656 406.09375 504.945312 409.390625 499.351562 C 412.6875 493.765625 419.039062 481.878906 419.039062 477.320312 C 419.039062 472.761719 418.894531 465.679688 411.742188 461.164062 C 404.578125 456.65625 394.5625 453.988281 389.117188 442.796875 C 383.664062 431.613281 385.820312 426.539062 380.113281 419.292969 C 374.414062 412.046875 367.828125 407.976562 371.246094 404.925781 C 374.667969 401.882812 378.21875 400.867188 378.21875 400.867188 C 378.21875 400.867188 373.394531 398.320312 374.414062 394.636719 C 375.429688 390.945312 379.105469 386.628906 380.753906 382.183594 C 382.402344 377.738281 384.679688 374.175781 388.984375 374.683594 C 393.289062 375.195312 393.933594 375.570312 393.800781 372.902344 C 393.675781 370.238281 393.933594 354.730469 390.511719 350.660156 C 387.082031 346.601562 390.003906 342.277344 392.539062 344.820312 C 395.070312 347.363281 395.582031 349.777344 397.980469 345.839844 C 400.394531 341.890625 405.460938 335.796875 408.757812 334.402344 C 412.054688 332.996094 424.605469 327.917969 426.496094 330.269531 C 428.402344 332.621094 440.441406 340.945312 445.132812 340.496094 C 449.824219 340.058594 458.503906 336.496094 458.503906 336.496094 C 458.503906 336.496094 461.476562 336.242188 463.753906 341.320312 C 466.042969 346.40625 469.464844 346.152344 472.820312 348.503906 C 476.179688 350.855469 478.519531 355.871094 481.757812 357.273438 C 484.984375 358.667969 499.628906 359.5625 502.539062 362.859375 C 505.449219 366.167969 504.816406 376.078125 504.816406 379.386719 C 504.816406 382.691406 507.351562 384.726562 512.550781 385.105469 C 517.742188 385.492188 522.433594 387.140625 523.320312 391.972656 C 524.203125 396.796875 533.332031 392.226562 535.734375 394.761719 C 538.148438 397.304688 539.917969 399.847656 542.582031 400.734375 C 545.25 401.628906 545.371094 404.164062 542.839844 413.066406 C 540.304688 421.957031 530.167969 433.78125 526.617188 440.519531 C 523.066406 447.253906 520.152344 451.058594 517.875 456.523438 C 517.394531 457.652344 516.949219 458.875 516.460938 460.117188 C 513.121094 437.832031 505.816406 408.191406 493.125 381.277344 C 481.808594 427.054688 472.210938 469.3125 456.855469 511.9375 C 451.707031 511.925781 449.253906 510.492188 449.121094 514.09375 C 449 517.71875 444.246094 518.804688 437.652344 520.320312 C 431.054688 521.847656 430.171875 525.277344 425.101562 527.445312 " fill-opacity="1" fill-rule="evenodd"/><path fill="#e4ac30" d="M 498.222656 392.917969 C 501.082031 389.742188 503.851562 386.5 506.515625 383.171875 C 507.789062 384.238281 509.792969 384.902344 512.550781 385.105469 C 517.742188 385.492188 522.433594 387.140625 523.320312 391.972656 C 524.203125 396.796875 533.332031 392.226562 535.734375 394.761719 C 538.148438 397.304688 539.917969 399.847656 542.582031 400.734375 C 545.25 401.628906 545.371094 404.164062 542.839844 413.066406 C 540.304688 421.957031 530.167969 433.78125 526.617188 440.519531 C 523.066406 447.253906 520.152344 451.058594 517.875 456.523438 C 517.394531 457.652344 516.949219 458.875 516.460938 460.117188 C 513.601562 441.007812 507.808594 416.484375 498.222656 392.917969 Z M 425.101562 527.445312 C 425.101562 527.445312 417.125 531.757812 409.269531 535.707031 C 401.410156 539.644531 391.398438 537.355469 391.398438 537.355469 C 391.398438 537.355469 396.71875 526.425781 399.121094 524.015625 C 401.535156 521.59375 405.839844 519.8125 406.480469 512.953125 C 407.109375 506.097656 406.09375 504.945312 409.390625 499.351562 C 412.6875 493.765625 419.039062 481.878906 419.039062 477.320312 C 419.039062 472.761719 418.894531 465.679688 411.742188 461.164062 C 408.078125 458.855469 403.671875 457.03125 399.5 454.304688 C 433.019531 444.84375 463.125 427.28125 487.589844 403.855469 C 478.460938 441.128906 469.65625 476.40625 456.855469 511.9375 C 451.707031 511.925781 449.253906 510.492188 449.121094 514.09375 C 449 517.71875 444.246094 518.804688 437.652344 520.320312 C 431.054688 521.847656 430.171875 525.277344 425.101562 527.445312 " fill-opacity="1" fill-rule="evenodd"/><path fill="#8cd02f" d="M 378.472656 255.960938 C 375.664062 256.011719 372.84375 256.074219 370.027344 256.132812 C 370.28125 257.171875 370.472656 258.167969 370.605469 258.910156 C 371.117188 261.710938 373.78125 272.25 378.21875 271.113281 C 381.894531 270.164062 380.609375 263.550781 378.472656 255.960938 Z M 275.433594 249.125 C 275.433594 249.125 282.027344 240.992188 282.660156 247.851562 C 283.300781 254.710938 282.914062 262.59375 286.332031 271.367188 C 289.753906 280.125 294.832031 286.230469 295.96875 291.066406 C 297.109375 295.886719 302.179688 302.625 307.125 303.519531 C 312.058594 304.40625 310.035156 295.632812 307.378906 293.609375 C 304.710938 291.574219 299.136719 285.601562 301.667969 280.125 C 304.203125 274.664062 305.730469 271.367188 302.554688 268.945312 C 299.390625 266.53125 306.617188 265.902344 303.574219 261.445312 C 300.53125 257 294.933594 250.152344 305.820312 246.863281 C 316.710938 243.566406 319.246094 234.703125 313.667969 234.703125 C 308.101562 234.703125 312.152344 225.589844 318.734375 222.546875 C 325.320312 219.511719 319.246094 219.757812 318.734375 211.914062 C 318.226562 204.066406 312.945312 207.820312 310.796875 203.375 C 308.640625 198.917969 308.007812 195.621094 303.949219 199.8125 C 299.898438 204.007812 294.1875 204.890625 290.394531 205.402344 C 286.585938 205.910156 283.167969 209.46875 281.011719 212.390625 C 278.863281 215.320312 274.546875 218.871094 271.382812 223.960938 C 268.21875 229.046875 268.972656 232.476562 266.945312 235.519531 C 264.921875 238.570312 264.035156 250.261719 264.035156 254.078125 C 264.035156 257.894531 265.296875 262.339844 266.4375 263.988281 L 266.691406 276.320312 C 266.691406 276.320312 261.5 273.269531 260.484375 269.707031 C 259.464844 266.15625 257.695312 259.675781 259.597656 252.550781 C 261.5 245.441406 261.746094 242.519531 259.597656 239.589844 C 257.441406 236.667969 256.808594 229.679688 259.976562 225.484375 C 263.140625 221.292969 269.734375 217.988281 274.800781 213.03125 C 279.871094 208.078125 283.046875 205.53125 283.675781 200.445312 C 283.675781 200.445312 295.839844 191.042969 318.023438 182.273438 C 318.023438 182.273438 344.25 172.75 366.679688 172.238281 C 366.679688 172.238281 355.597656 177.0625 356.359375 178.90625 C 357.121094 180.757812 360.09375 182.273438 364.46875 182.273438 C 368.835938 182.273438 377.902344 181.894531 378.085938 183.230469 C 378.28125 184.5625 380.242188 192.886719 385.25 191.613281 C 390.257812 190.339844 392.730469 188.691406 392.730469 185.519531 C 392.730469 182.332031 392.34375 176.941406 394.878906 176.941406 C 396.742188 176.941406 399.242188 178.375 401.503906 179.160156 C 405.300781 189.425781 409.023438 200.414062 412.667969 212.21875 C 408.453125 213.96875 403.933594 215.984375 399.214844 218.25 C 396.394531 218.464844 393.953125 219.023438 393.472656 221.082031 C 376.894531 229.453125 358.382812 240.679688 341.734375 254.273438 C 336.585938 253.386719 327.386719 253.324219 323.089844 255.097656 C 318.144531 257.132812 317.136719 258.910156 315.988281 261.832031 C 314.847656 264.753906 312.824219 269.960938 310.542969 273.015625 C 308.265625 276.066406 305.222656 279.363281 308.773438 287.878906 C 312.3125 296.398438 317.890625 300.335938 321.1875 299.703125 C 324.484375 299.0625 330.316406 298.308594 332.972656 296.144531 C 335.640625 293.984375 336.648438 291.1875 337.410156 288.898438 C 338.164062 286.609375 342.601562 283.179688 347.921875 282.925781 C 353.246094 282.671875 352.492188 284.074219 350.84375 289.285156 C 349.195312 294.496094 346.78125 297.667969 344.636719 300.589844 C 342.476562 303.519531 337.15625 312.921875 344.125 311.140625 C 351.097656 309.359375 366.8125 305.167969 367.320312 310.886719 C 367.828125 316.605469 367.066406 321.304688 366.433594 327.917969 C 365.792969 334.523438 364.722656 340.945312 370.933594 341.066406 C 377.140625 341.199219 380.304688 339.867188 383.855469 339.867188 C 387.410156 339.867188 391.335938 343.671875 393.738281 346.152344 C 393.738281 346.152344 394.625 352.503906 390.828125 350.988281 C 387.023438 349.460938 387.335938 345.195312 383.664062 345.898438 C 379.988281 346.601562 379.929688 347.679688 377.648438 350.601562 C 375.371094 353.519531 374.414062 354.671875 370.679688 350.539062 C 366.933594 346.40625 364.398438 342.652344 357.558594 340.558594 C 350.722656 338.460938 350.082031 338.207031 350.203125 331.726562 C 350.335938 325.242188 351.472656 321.945312 344.890625 321.558594 C 338.296875 321.183594 325.625 321.183594 322.460938 316.351562 C 319.285156 311.527344 319.285156 309.867188 312.3125 309.867188 C 305.34375 309.867188 299.511719 309.359375 296.855469 305.167969 C 294.1875 300.976562 290.015625 300.210938 285.824219 300.210938 C 281.652344 300.210938 278.222656 297.414062 281.011719 293.34375 C 283.800781 289.285156 283.675781 285.46875 280.632812 278.480469 C 277.589844 271.488281 275.941406 262.339844 275.433594 249.125 " fill-opacity="1" fill-rule="evenodd"/><path fill="#8cd02f" d="M 380.113281 285.976562 C 380.113281 285.976562 375.429688 285.214844 368.714844 286.101562 C 361.996094 286.996094 363.511719 284.839844 364.785156 282.292969 C 366.046875 279.75 374.535156 276.445312 385.058594 279.871094 C 395.582031 283.3125 410.152344 290.8125 408.757812 295.511719 C 407.363281 300.210938 399.121094 296.019531 394.308594 295.886719 C 389.496094 295.765625 388.609375 293.984375 386.839844 291.066406 C 385.058594 288.132812 382.523438 286.363281 380.113281 285.976562 " fill-opacity="1" fill-rule="evenodd"/><path fill="#8cd02f" d="M 413.695312 304.914062 C 413.695312 304.914062 416.617188 307.203125 420.035156 306.949219 C 423.453125 306.695312 424.21875 304.28125 427.636719 304.660156 C 431.054688 305.035156 436.632812 308.476562 437.273438 306.5625 C 437.90625 304.660156 436.511719 301.097656 433.722656 298.6875 C 430.933594 296.273438 426.496094 293.101562 423.707031 294.496094 C 420.921875 295.886719 410.90625 302.625 413.695312 304.914062 " fill-opacity="1" fill-rule="evenodd"/><path fill="#8cd02f" d="M 424.867188 528.226562 C 424.867188 528.226562 407.894531 530.253906 414.734375 519.355469 C 421.570312 508.46875 427.902344 507.960938 428.917969 495.554688 C 429.9375 483.140625 437.527344 479.601562 441.335938 473.769531 C 445.132812 467.949219 441.578125 461.621094 431.707031 457.0625 C 421.828125 452.503906 429.175781 447.183594 416.257812 446.429688 C 403.335938 445.667969 400.300781 441.605469 396.242188 433.761719 C 392.191406 425.90625 394.9375 421.074219 391.265625 416.496094 C 388.285156 412.78125 388.027344 401.832031 382.625 400.753906 C 381.261719 400.46875 379.214844 401.230469 377.832031 400.609375 C 370.484375 397.304688 375.746094 391.585938 380.242188 383.070312 C 384.742188 374.550781 387.652344 374.683594 392.222656 375.0625 C 396.78125 375.449219 392.28125 362.859375 391.144531 354.609375 C 390.65625 351.046875 390.789062 342.601562 393.199219 344.941406 C 396.558594 348.1875 397.148438 347.34375 404.699219 337.066406 C 407.183594 333.699219 423.585938 327.726562 427.136719 330.453125 C 430.679688 333.191406 437.285156 341.148438 447.410156 340.242188 C 450.035156 340.007812 452.285156 338.65625 455.328125 337.574219 C 458.371094 336.496094 461.21875 335.03125 463.125 340.121094 C 465.027344 345.195312 472.628906 347.109375 475.164062 350.03125 C 477.695312 352.949219 478.835938 357.019531 488.597656 358.546875 C 498.355469 360.074219 504.816406 362.230469 504.816406 368.710938 C 504.816406 375.195312 502.660156 382.945312 510.902344 384.726562 C 519.136719 386.5 521.425781 386.753906 522.808594 390.566406 C 524.203125 394.382812 528.519531 393.875 532.824219 394.25 C 537.128906 394.636719 537.261719 395.910156 538.65625 397.8125 C 540.050781 399.714844 544.609375 399.460938 544.609375 404.039062 C 544.609375 408.617188 541.699219 419.039062 536.375 425.894531 C 531.054688 432.765625 525.851562 441.402344 520.664062 450.175781 C 518.667969 453.523438 517.589844 457.011719 516.46875 460.144531 C 513.132812 437.863281 505.824219 408.203125 493.125 381.277344 C 481.796875 427.085938 472.203125 469.386719 456.824219 512.039062 C 456.519531 512.058594 456.214844 512.070312 455.898438 512.058594 C 451.460938 511.9375 449.566406 510.664062 449.179688 513.332031 C 448.804688 516.007812 449.3125 518.542969 442.71875 519.050781 C 436.136719 519.558594 428.910156 524.902344 424.867188 528.226562 " fill-opacity="1" fill-rule="evenodd"/><path fill="#53a037" d="M 498.222656 392.917969 C 501.195312 389.621094 504.074219 386.234375 506.84375 382.765625 C 507.777344 383.648438 509.09375 384.332031 510.902344 384.726562 C 519.136719 386.5 521.425781 386.753906 522.808594 390.566406 C 524.203125 394.382812 528.519531 393.875 532.824219 394.25 C 537.128906 394.636719 537.261719 395.910156 538.65625 397.8125 C 540.050781 399.714844 544.609375 399.460938 544.609375 404.039062 C 544.609375 408.617188 541.699219 419.039062 536.375 425.894531 C 531.054688 432.765625 525.851562 441.402344 520.664062 450.175781 C 518.667969 453.523438 517.589844 457.011719 516.46875 460.144531 C 513.609375 441.035156 507.820312 416.496094 498.222656 392.917969 Z M 424.867188 528.226562 C 424.867188 528.226562 407.894531 530.253906 414.734375 519.355469 C 421.570312 508.46875 427.902344 507.960938 428.917969 495.554688 C 429.9375 483.140625 437.527344 479.601562 441.335938 473.769531 C 445.132812 467.949219 441.578125 461.621094 431.707031 457.0625 C 423.28125 453.175781 427.382812 448.730469 420.757812 447.039062 C 445.78125 436.957031 468.414062 422.203125 487.589844 403.855469 C 478.449219 441.167969 469.648438 476.476562 456.824219 512.039062 C 456.519531 512.058594 456.214844 512.070312 455.898438 512.058594 C 451.460938 511.9375 449.566406 510.664062 449.179688 513.332031 C 448.804688 516.007812 449.3125 518.542969 442.71875 519.050781 C 436.136719 519.558594 428.910156 524.902344 424.867188 528.226562 " fill-opacity="1" fill-rule="evenodd"/><path fill="#ffffff" d="M 542.503906 261.984375 L 542.867188 262.605469 L 542.480469 262.054688 Z M 382.410156 169.777344 C 387.722656 169.777344 392.996094 170 398.195312 170.4375 C 399.710938 174.335938 401.21875 178.34375 402.714844 182.464844 C 397.878906 182.089844 392.984375 181.894531 388.050781 181.894531 C 318.136719 181.894531 257.085938 219.921875 224.449219 276.394531 C 223.113281 272.679688 221.824219 268.914062 220.5625 265.089844 C 252.140625 208.25 312.78125 169.777344 382.410156 169.777344 " fill-opacity="1" fill-rule="evenodd"/><path fill="#ffffff" d="M 451.390625 526.476562 C 430.070312 535.046875 406.796875 539.777344 382.410156 539.777344 C 312.546875 539.777344 251.730469 501.039062 220.246094 443.886719 C 252.75 497.050781 311.335938 532.542969 378.207031 532.542969 C 405.796875 532.542969 431.984375 526.488281 455.5 515.660156 C 454.179688 519.261719 452.804688 522.867188 451.390625 526.476562 Z M 542.503906 261.984375 C 558.359375 289.265625 567.433594 320.960938 567.433594 354.773438 C 567.433594 395.421875 554.316406 433 532.089844 463.523438 C 528.753906 463.71875 525.363281 463.890625 521.925781 464.042969 C 547.753906 432.234375 563.242188 391.699219 563.242188 347.539062 C 563.242188 316.777344 555.710938 287.757812 542.421875 262.238281 L 542.503906 261.984375 " fill-opacity="1" fill-rule="evenodd"/><path fill="#ffffff" d="M 493.125 381.277344 C 476.425781 448.820312 463.480469 508.710938 430.242188 573.394531 C 485.296875 609.128906 531.5625 653.992188 577.640625 711.207031 C 575.679688 682.015625 571.78125 665.417969 560.707031 630.113281 C 589.957031 622.734375 637.542969 612.019531 668.257812 577.121094 C 666.832031 541.34375 662.984375 510.6875 721.226562 379.46875 C 702.613281 414.589844 659.800781 458.976562 517.050781 464.246094 C 514.027344 441.597656 506.617188 409.890625 493.125 381.277344 " fill-opacity="1" fill-rule="evenodd"/><path fill="#66c430" d="M 448.792969 570.8125 C 506.507812 609.589844 547.335938 654.371094 578.222656 711.15625 C 576.257812 681.964844 572.359375 665.359375 561.277344 630.050781 C 584.125 624.300781 618.796875 616.140625 647.242188 596.359375 C 652.320312 556.292969 640.953125 562.539062 646.90625 525.480469 C 653.765625 482.796875 666.457031 482.296875 675.683594 444.160156 C 641.675781 462.078125 592.5625 476.8125 508.371094 481.117188 C 506.242188 465.183594 503.617188 440.507812 496.5625 419.863281 C 485.746094 475.632812 461.566406 545.964844 448.792969 570.8125 " fill-opacity="1" fill-rule="evenodd"/><path fill="#ffffff" d="M 338.703125 256.796875 C 408.269531 255.441406 469.484375 252.441406 540.578125 267.804688 C 560.851562 205.378906 592.214844 149.089844 635.558594 89.78125 C 607.867188 99.234375 592.835938 107.292969 561.59375 127.121094 C 546.910156 100.789062 524.234375 57.597656 482.570312 36.972656 C 448.378906 47.605469 419.75 59.253906 277.90625 36.972656 C 316.667969 45.855469 370.617188 75.71875 412.667969 212.21875 C 391.550781 221 362.851562 236.363281 338.703125 256.796875 " fill-opacity="1" fill-rule="evenodd"/><path fill="#ffffff" d="M 310.714844 441.597656 C 274.761719 382.03125 241.554688 330.535156 219.320312 261.292969 C 155.113281 274.949219 90.675781 275.933594 17.625 268.058594 C 39.660156 287.320312 54.148438 296.296875 86.960938 313.429688 C 71.492188 339.316406 45.417969 380.546875 48.378906 426.933594 C 74.6875 451.234375 99.089844 470.1875 150.707031 604.15625 C 139.023438 566.152344 137.914062 504.507812 235.132812 399.847656 C 253.289062 413.726562 280.949219 430.914062 310.714844 441.597656 " fill-opacity="1" fill-rule="evenodd"/><path fill="#66c430" d="M 208.378906 275.976562 C 140.144531 289.367188 79.613281 286.566406 17.617188 268.253906 C 39.648438 287.503906 54.140625 296.488281 86.949219 313.613281 C 74.859375 333.839844 56.113281 364.121094 49.988281 398.21875 C 74.738281 430.140625 78.359375 417.683594 100.363281 448.097656 C 125.691406 483.132812 117.074219 492.460938 137.519531 525.949219 C 148.886719 489.238281 173.207031 444.089844 229.699219 381.523438 C 242.460938 391.289062 261.777344 406.878906 281.355469 416.496094 C 249.5625 369.414062 216.925781 302.582031 208.378906 275.976562 " fill-opacity="1" fill-rule="evenodd"/><path fill="#66c430" d="M 533.484375 251.097656 C 556.007812 185.316406 588.695312 134.296875 635.558594 89.78125 C 607.867188 99.234375 592.835938 107.292969 561.59375 127.121094 C 550.125 106.546875 533.273438 75.179688 506.792969 52.824219 C 466.765625 58.296875 475.761719 67.660156 438.402344 71.496094 C 395.398438 75.921875 391.621094 63.792969 352.402344 64.75 C 378.515625 92.953125 405.453125 136.585938 431.402344 216.777344 C 416.566406 222.953125 393.402344 231.875 375.277344 244.027344 C 431.960938 240.035156 506.160156 245.183594 533.484375 251.097656 " fill-opacity="1" fill-rule="evenodd"/><path fill="#0d0d0d" d="M 449.617188 530.933594 C 428.492188 539.085938 405.574219 543.570312 381.648438 543.570312 C 304.101562 543.570312 237.890625 496.582031 209.152344 429.589844 C 210.609375 427.808594 212.082031 426.019531 213.601562 424.207031 C 241.117188 490 306.359375 536.746094 381.648438 536.746094 C 406.96875 536.746094 431.148438 531.453125 453.148438 521.929688 C 452.011719 524.929688 450.828125 527.933594 449.617188 530.933594 Z M 543.824219 258.117188 C 561.042969 286.210938 570.976562 319.25 570.976562 354.78125 C 570.976562 395.117188 558.175781 432.550781 536.4375 463.257812 C 533.332031 463.464844 530.148438 463.636719 526.941406 463.808594 C 549.941406 433.335938 563.648438 395.523438 563.648438 354.78125 C 563.648438 323.066406 555.335938 293.140625 540.8125 267.0625 C 541.800781 264.058594 542.796875 261.089844 543.824219 258.117188 Z M 381.648438 168.007812 C 386.980469 168.007812 392.273438 168.242188 397.492188 168.667969 C 398.144531 170.316406 398.796875 171.996094 399.449219 173.695312 C 393.585938 173.113281 387.652344 172.808594 381.648438 172.808594 C 312.976562 172.808594 252.648438 211.699219 221.691406 268.476562 C 220.886719 266.105469 220.101562 263.703125 219.320312 261.292969 L 218.605469 261.445312 C 250.929688 205.351562 311.671875 168.007812 381.648438 168.007812 " fill-opacity="1" fill-rule="nonzero"/><path fill="#0d0d0d" d="M 390.246094 347.414062 C 394.808594 352.816406 393.921875 364.976562 395.152344 372.945312 C 396.089844 379.070312 392.824219 378.773438 389.605469 376.914062 C 386.625 375.195312 384.773438 379.367188 383.398438 381.238281 C 367.066406 403.449219 383.570312 395.066406 382.269531 401.019531 C 381.566406 404.265625 369.507812 404.671875 373.863281 409.59375 L 373.3125 409.179688 C 400.617188 430.863281 372.40625 435.695312 409.808594 457.96875 C 429.9375 469.953125 420.757812 486.144531 410.09375 503.289062 C 408.648438 508.214844 409.003906 513.535156 407.191406 516.972656 C 405.054688 521.054688 401.839844 523.078125 399.101562 527.066406 C 397.207031 529.804688 394.917969 535.003906 392.589844 538.199219 C 392.242188 538.667969 387.316406 540.296875 386.992188 540.621094 C 388.253906 538.035156 395.246094 525.105469 395.835938 524.421875 C 400.046875 519.527344 402.054688 519.925781 403.425781 517.472656 C 407.160156 510.808594 402.15625 507.632812 406.550781 499.847656 C 411.140625 491.738281 412.800781 488.566406 414.53125 483.417969 C 418.070312 472.914062 416.851562 467.277344 413.511719 464.234375 C 406.328125 457.695312 389.015625 459.160156 383.183594 430.8125 C 379.726562 414.011719 358.484375 408.800781 374.371094 400.867188 C 368.550781 394.039062 376.792969 389.613281 379.96875 379.957031 C 384.4375 366.402344 392.609375 377.023438 392.070312 372.179688 C 391.03125 362.882812 390.675781 356.625 388.210938 351.554688 C 386.941406 348.921875 381.679688 344.566406 379.980469 349.46875 C 374.871094 364.164062 366.800781 344.941406 359.574219 343.203125 C 332.851562 336.75 363.71875 323.105469 336.871094 322.585938 C 313.472656 322.121094 323.8125 312.230469 315.246094 312.441406 C 290.464844 313.074219 298.707031 305.910156 292.671875 304.609375 C 265.308594 298.707031 284.09375 293.933594 279.464844 282 C 271.902344 262.460938 274.488281 248.757812 271.230469 247.566406 C 267.667969 252.011719 271.191406 268.457031 268.980469 277.359375 C 267.425781 283.617188 264.402344 278.398438 261.929688 276.117188 C 249.003906 264.203125 262.9375 246.875 258.988281 242.304688 C 243.03125 223.867188 280.226562 215.085938 282.8125 199.03125 C 282.933594 198.257812 285.132812 196.394531 285.089844 195.589844 C 291.6875 212.308594 248.292969 224.328125 261.53125 240.199219 C 267.210938 246.996094 253.921875 258.167969 265.316406 273.636719 C 264.929688 260.8125 265.164062 233.128906 275.394531 244.179688 C 281.53125 250.800781 274.933594 261.742188 284.523438 281.296875 C 292.652344 297.882812 267.984375 295.449219 293.84375 299.875 C 302.636719 301.382812 292.449219 307.550781 315.613281 308.972656 C 328.78125 309.789062 316.488281 317.621094 339.242188 318.679688 C 368.480469 320.035156 338.957031 334.066406 360.980469 340.433594 C 374.261719 344.28125 371.675781 361.203125 379.582031 344.984375 C 380.886719 342.316406 388.46875 345.296875 390.246094 347.414062 " fill-opacity="1" fill-rule="evenodd"/><path fill="#0d0d0d" d="M 349.113281 256.582031 L 345.664062 256.652344 C 347.65625 257.203125 348.789062 257.519531 349.113281 256.582031 Z M 402.0625 180.695312 C 396.894531 178.488281 392.914062 173.632812 394.441406 185.589844 C 395.214844 191.59375 378.1875 201.035156 376.632812 183.980469 C 376.375 182.871094 365.933594 183.460938 359.878906 182.34375 C 356.136719 181.652344 354.464844 180.085938 354.761719 178.761719 C 355.738281 174.265625 367.441406 171.039062 375.980469 172.027344 C 365.832031 174.425781 363.125 175.730469 360.214844 177.09375 C 357.347656 178.445312 355.160156 179.332031 360.339844 180.632812 C 366.863281 182.28125 379.550781 179.71875 380.0625 182.648438 C 382.25 195.023438 390.777344 188.894531 391.246094 185.242188 C 391.867188 180.460938 388.476562 173.207031 398.316406 176.136719 C 399.152344 176.390625 399.925781 176.695312 400.699219 176.992188 C 401.15625 178.210938 401.613281 179.453125 402.0625 180.695312 Z M 391.5 222.085938 C 391.53125 217.0625 397.414062 217.246094 403.640625 216.175781 C 399.742188 217.96875 395.683594 219.929688 391.5 222.085938 Z M 372.714844 256.074219 L 368.582031 256.164062 C 370.199219 275.050781 387.4375 282.109375 380.253906 255.929688 L 377.445312 255.980469 C 378.820312 260.03125 379.929688 264.558594 378.351562 269.453125 C 373.058594 266.410156 372.886719 262.839844 372.753906 256.925781 C 372.742188 256.632812 372.734375 256.347656 372.714844 256.074219 Z M 345.519531 251.238281 C 347.515625 249.683594 349.539062 248.15625 351.574219 246.660156 C 349.082031 246.222656 346.90625 246.824219 345.949219 249.09375 C 345.632812 249.855469 345.550781 250.597656 345.519531 251.238281 Z M 455.980469 514.347656 C 454.167969 513.890625 452.507812 512.976562 450.960938 513.148438 C 450.515625 524.574219 443.300781 515.335938 427.445312 529.328125 C 423.515625 532.785156 402.449219 538.636719 399.722656 539.835938 C 404.191406 537.140625 410.632812 532.867188 414.996094 530.34375 C 416.503906 528.175781 421.96875 528.644531 425.824219 525.003906 C 436.238281 515.144531 447.371094 517.859375 447.238281 514.035156 C 445.34375 507.625 452.46875 510.023438 455.828125 510.390625 C 456.234375 510.441406 456.84375 510.238281 457.597656 509.863281 C 457.066406 511.359375 456.527344 512.851562 455.980469 514.347656 Z M 387.714844 338.605469 C 393.351562 341.289062 393.726562 350.011719 400.464844 341.136719 C 401.542969 339.703125 402.398438 337.414062 404.445312 335.175781 C 407.375 331.96875 424.808594 326.820312 426.699219 327.816406 C 429.113281 329.101562 429.101562 329.335938 432.929688 333.34375 C 453.363281 347.894531 456.753906 324.042969 464.640625 339.234375 C 467.875 345.460938 465.597656 342.683594 471.652344 345.53125 C 480.300781 349.613281 471.335938 353.746094 495.148438 357.632812 C 517.703125 361.316406 496.65625 380.523438 514.933594 383.566406 C 519.351562 384.300781 522.28125 385.988281 522.902344 387.179688 C 525.964844 393.082031 526.757812 390.527344 533.902344 391.953125 C 535.195312 392.207031 536.445312 392.550781 537.628906 393.011719 C 539.796875 393.84375 538.390625 395.796875 539.917969 397.304688 C 541.523438 398.902344 545.941406 398.128906 546.5 400.488281 C 546.886719 402.105469 547.347656 404.703125 546.847656 407.855469 C 543.132812 430.992188 527.785156 432.957031 520.195312 456.972656 C 519.257812 459.933594 518.394531 462.304688 517.570312 464.226562 L 517.050781 464.246094 C 516.703125 461.683594 516.308594 458.984375 515.847656 456.207031 L 516.03125 455.8125 C 524.640625 436.632812 544.375 418 541.546875 401.894531 C 538.289062 401.3125 537.128906 400.324219 535.847656 397.558594 C 532.019531 396.410156 531.417969 396.175781 529.332031 395.972656 C 516.277344 394.667969 525.628906 388.746094 516.429688 388.339844 C 488.28125 387.097656 514.507812 365.457031 495.597656 362.078125 C 467.53125 357.070312 484.890625 355.421875 468.800781 348.644531 C 461.800781 345.695312 461.375 343.109375 460.957031 341.332031 C 459.519531 335.277344 457.046875 339.132812 455.511719 339.96875 C 438.789062 349.023438 430.507812 332.609375 425.511719 331.53125 C 422.132812 330.808594 408.535156 335.957031 406.886719 337.6875 C 402.765625 342.003906 399.621094 348.25 398.195312 349.726562 C 396.097656 351.914062 394.390625 347.507812 389.546875 343.90625 C 383.164062 339.152344 381.394531 342.15625 374.261719 342.511719 C 367.289062 342.855469 361.316406 339.90625 365.710938 321.449219 C 372.429688 293.273438 327.804688 327.765625 341.308594 303.632812 C 342.527344 301.445312 346.996094 295.1875 348.890625 289.710938 C 350.242188 285.816406 351.085938 284.015625 346.019531 284.53125 C 341.09375 285.03125 338.222656 289.164062 337.09375 294.210938 C 336.414062 297.273438 332.382812 299.132812 328.3125 299.613281 C 321.617188 300.394531 320.984375 304.3125 316.75 301.085938 C 309.230469 295.347656 308.386719 291.523438 306.839844 286.527344 C 302.21875 271.601562 311.855469 273.949219 314.167969 260.609375 C 315.824219 251.046875 329.429688 248.613281 339.566406 252.339844 C 340.960938 252.847656 342.019531 253.183594 342.835938 253.375 C 341.96875 254.078125 341.105469 254.78125 340.257812 255.492188 C 331.90625 254.402344 320.027344 254.140625 318.683594 261.363281 C 316.058594 275.589844 300.582031 280.574219 314.683594 293.4375 C 322.175781 300.253906 320.742188 298.238281 326.082031 296.273438 C 344.503906 289.476562 328.351562 289.335938 339.425781 284.257812 C 364.949219 272.554688 352.09375 291.429688 343.945312 303.925781 C 340.59375 309.042969 341.746094 310.203125 347.394531 308.933594 C 360.726562 305.941406 373.691406 301.769531 369.621094 320.085938 C 367.5625 329.375 365.589844 336.152344 367.695312 338.5 C 372.328125 343.691406 381.273438 335.53125 387.714844 338.605469 " fill-opacity="1" fill-rule="evenodd"/><path fill="#0d0d0d" d="M 367.511719 285.09375 C 372.113281 285.042969 380.140625 279.109375 387.285156 289.222656 C 389.972656 293.027344 389.1875 294.25 394.625 294.605469 C 397.851562 294.820312 410.90625 297.363281 406.429688 292.347656 C 401.746094 287.105469 377.730469 275.414062 366.800781 281.722656 C 365.082031 282.722656 363.636719 285.144531 367.511719 285.09375 Z M 364.855469 280.460938 C 373.628906 269.902344 399.398438 282.121094 408.445312 291.21875 C 414.660156 297.464844 411.84375 301.085938 389.269531 296.304688 C 381.351562 294.625 392.914062 284.523438 365.824219 287.320312 C 364.234375 287.484375 362.710938 286.945312 362.535156 285.773438 C 362.292969 284.175781 363.839844 281.683594 364.855469 280.460938 " fill-opacity="1" fill-rule="evenodd"/><path fill="#0d0d0d" d="M 422.914062 305.085938 C 426.597656 301.421875 431.523438 303.785156 434.324219 304.832031 C 436.378906 305.59375 437.335938 305.320312 435.585938 303.03125 C 426.476562 291.066406 420.707031 296.914062 415.609375 301.515625 C 412.902344 303.957031 414.03125 304.324219 415.566406 304.800781 C 418.519531 305.726562 421.542969 306.449219 422.914062 305.085938 Z M 423.066406 307.832031 C 420.503906 309.453125 415.425781 307.863281 413.398438 306.480469 C 410 304.140625 412.769531 300.957031 417.601562 296.144531 C 431.097656 282.679688 448.683594 315.484375 431.269531 307.507812 C 426.90625 305.503906 426.519531 305.625 423.066406 307.832031 " fill-opacity="1" fill-rule="evenodd"/><path fill="#0d0d0d" d="M 389.597656 301.085938 C 389.597656 301.085938 396.660156 300.101562 400.375 303.335938 C 404.097656 306.570312 395.582031 306.277344 393.515625 305.199219 C 391.457031 304.121094 386.269531 301.472656 389.597656 301.085938 " fill-opacity="1" fill-rule="evenodd"/><path fill="#0d0d0d" d="M 446.28125 302.21875 C 446.28125 302.21875 440.695312 299.855469 440.695312 302.410156 C 440.695312 304.953125 443.738281 305.542969 446.769531 304.863281 C 449.8125 304.171875 448.53125 302.898438 446.28125 302.21875 " fill-opacity="1" fill-rule="evenodd"/><path fill="#0d0d0d" d="M 462.054688 311.425781 C 462.054688 311.425781 460.78125 313.1875 462.542969 313.378906 C 464.304688 313.582031 463.621094 308.484375 462.054688 311.425781 " fill-opacity="1" fill-rule="evenodd"/><path fill="#0d0d0d" d="M 463.519531 315.242188 C 463.519531 315.242188 463.132812 317.59375 464.800781 317.5 C 466.460938 317.398438 463.519531 312.300781 463.519531 315.242188 " fill-opacity="1" fill-rule="evenodd"/><path fill="#0d0d0d" d="M 465.1875 320.339844 C 465.1875 320.339844 465.972656 322.097656 466.664062 321.121094 C 467.347656 320.136719 465.097656 316.707031 465.1875 320.339844 " fill-opacity="1" fill-rule="evenodd"/><path fill="#0d0d0d" d="M 465.882812 324.0625 C 465.882812 324.0625 467.152344 324.0625 467.152344 322.984375 C 467.152344 321.90625 466.144531 322.273438 465.851562 323.054688 C 465.554688 323.839844 465.363281 324.234375 465.882812 324.0625 " fill-opacity="1" fill-rule="evenodd"/><path fill="#0d0d0d" d="M 468.058594 336.964844 C 468.058594 336.964844 465.902344 337.066406 466.296875 339.019531 C 466.683594 340.984375 466.878906 342.257812 469.136719 341.179688 C 471.386719 340.097656 470.898438 336.082031 468.058594 336.964844 " fill-opacity="1" fill-rule="evenodd"/><path fill="#0d0d0d" d="M 326.847656 388.574219 C 326.847656 388.574219 328.851562 386.019531 327.875 384.746094 C 326.898438 383.476562 325.871094 384.402344 325.574219 385.042969 C 325.28125 385.675781 325.523438 390.617188 326.847656 388.574219 " fill-opacity="1" fill-rule="evenodd"/><path fill="#0d0d0d" d="M 187.8125 459.859375 C 202.539062 470.738281 222.28125 473.71875 240.597656 474.871094 C 241.960938 476.476562 243.40625 478.136719 244.964844 479.84375 C 220.96875 478.289062 199.574219 474.175781 184.984375 465.265625 C 186.164062 462.445312 186.734375 461.507812 187.8125 459.859375 " fill-opacity="1" fill-rule="nonzero"/><path fill="#0d0d0d" d="M 153.636719 601.714844 C 156.304688 608.671875 183.445312 645.609375 347.984375 634.058594 C 325.992188 610.035156 303.675781 575.777344 294.820312 545.648438 C 297.863281 538.363281 301.730469 531.289062 306.136719 524.464844 C 307.917969 525.265625 309.71875 526.050781 311.550781 526.804688 C 307.9375 532.816406 304.703125 539.15625 301.945312 545.941406 C 311.765625 582.511719 334.246094 610.351562 357.683594 639.136719 C 340.585938 640.441406 180.636719 652.039062 150.503906 609.875 C 149.464844 608.417969 148.417969 606.902344 147.644531 605.285156 C 147.371094 604.5 147.085938 603.71875 146.808594 602.914062 C 147.042969 596.257812 147.757812 587.957031 148.398438 581.535156 C 149.679688 588.863281 151.441406 595.679688 153.636719 601.714844 " fill-opacity="1" fill-rule="nonzero"/><path fill="#0d0d0d" d="M 342.773438 174.4375 C 355.351562 156.601562 368.714844 142.261719 382.71875 135.234375 C 384.222656 137.328125 384.4375 141.195312 384.171875 141.308594 C 369.824219 147.625 358.640625 160 349.359375 173.023438 C 347.261719 173.429688 345.0625 173.898438 342.773438 174.4375 " fill-opacity="1" fill-rule="nonzero"/><g clip-path="url(#f3a8a955bf)"><path fill="#0d0d0d" d="M 278.558594 40.726562 C 271.199219 39.554688 225.640625 44.582031 153.363281 192.824219 C 185.175781 185.804688 226.003906 183.605469 256.523438 191.003906 C 260.738281 196.519531 264.484375 202.5 267.84375 208.777344 C 266.101562 210.070312 264.515625 211.3125 263.089844 212.460938 C 260.035156 207.179688 256.605469 202.03125 252.71875 197.027344 C 216.125 187.246094 180.769531 192.792969 144.121094 198.695312 C 151.542969 183.230469 221.476562 38.945312 273.050781 33.929688 C 274.832031 33.753906 276.675781 33.613281 278.464844 33.753906 C 282.660156 34.476562 286.984375 35.484375 291.390625 36.738281 C 291.390625 40.542969 310.757812 49.730469 291.460938 43.859375 C 287.015625 42.507812 282.691406 41.449219 278.558594 40.726562 " fill-opacity="1" fill-rule="nonzero"/></g><path fill="#0d0d0d" d="M 563.179688 396.816406 C 580.714844 416.160156 594.433594 435.59375 598.757812 453.390625 L 592.898438 454.945312 C 589.863281 435.542969 576.378906 418.488281 563.355469 404.109375 C 562.792969 403.492188 563.121094 397.75 563.179688 396.816406 " fill-opacity="1" fill-rule="nonzero"/><path fill="#0d0d0d" d="M 717.429688 379.121094 C 720.472656 372.324219 727.402344 327.015625 602.890625 218.851562 C 601.445312 251.382812 593 291.390625 577.957031 318.957031 C 573.59375 320.746094 569.082031 322.273438 564.464844 323.574219 C 564.167969 321.324219 563.851562 319.238281 563.539062 317.328125 C 566.742188 316.25 569.9375 315.058594 573.125 313.714844 C 592.042969 280.898438 595.839844 245.328125 599.613281 208.402344 C 612.628906 219.5625 733.925781 324.449219 725.417969 375.570312 C 725.125 377.332031 724.789062 379.140625 724.1875 380.832031 C 723.964844 381.320312 723.730469 381.796875 723.507812 382.285156 L 714.0625 386.152344 C 715.3125 383.921875 716.421875 381.296875 717.429688 379.121094 " fill-opacity="1" fill-rule="nonzero"/><g clip-path="url(#4740c1df69)"><path fill="#0d0d0d" d="M 491.871094 374.960938 C 506.699219 400.53125 513.039062 429.121094 519.066406 460.878906 C 597.640625 455.210938 685.351562 445.871094 718.347656 377.941406 L 724.207031 380.78125 C 696.742188 438.746094 664.03125 520.808594 671.605469 578.359375 C 629.675781 614.757812 603.835938 624.882812 563.28125 631.921875 C 572.320312 655.925781 580.125 685.585938 579.1875 716.703125 C 535.828125 662.875 486.734375 613.382812 427.078125 574.046875 C 457.667969 513.984375 476.300781 444.578125 491.871094 374.960938 Z M 493.46875 385.296875 C 476.679688 471.390625 458.25 528.714844 433.84375 573 C 470.308594 592.933594 523.695312 641.140625 575.109375 704.042969 C 573.621094 677.375 564.910156 653.128906 555.78125 628.199219 C 597.222656 619.234375 640.25 605.652344 667.066406 576.691406 C 662.945312 553.644531 659.210938 512.476562 711.414062 397.84375 C 674.628906 452.230469 579.472656 465.996094 514.210938 467.664062 C 510.730469 441.496094 503.757812 409.648438 493.46875 385.296875 " fill-opacity="1" fill-rule="nonzero"/></g><path fill="#0d0d0d" d="M 316.078125 445.179688 C 287.511719 437.585938 262.804688 421.855469 236.089844 403.652344 C 184.535156 463.21875 129.113281 531.839844 153.820312 603.1875 L 147.675781 605.324219 C 126.101562 544.925781 91.183594 463.769531 45.132812 428.429688 C 49.050781 373.046875 60.15625 347.617188 83.847656 313.96875 C 60.492188 303.386719 33.988281 287.929688 12.640625 265.269531 C 81.375 272.679688 151.09375 272.964844 221.089844 258.605469 C 241.941406 322.699219 277.855469 384.953125 316.078125 445.179688 Z M 307.632812 439 C 258.621094 366.257812 231.113281 312.6875 217.050781 264.121094 C 177.175781 275.8125 105.320312 279.464844 24.484375 271.335938 C 44.402344 289.132812 67.707031 300.132812 91.792969 311.304688 C 68.824219 346.9375 48.015625 386.964844 49.53125 426.40625 C 68.742188 439.785156 100.496094 466.25 144.652344 584.222656 C 132.207031 519.761719 189.746094 442.746094 234.714844 395.433594 C 255.679688 411.46875 283.136719 429.0625 307.632812 439 " fill-opacity="1" fill-rule="nonzero"/><g clip-path="url(#035d0f80bc)"><path fill="#0d0d0d" d="M 332.921875 259.644531 C 353.773438 238.703125 379.765625 225.171875 408.882812 211.148438 C 383.074219 136.71875 351.351562 54.429688 277.183594 40.144531 L 278.40625 33.753906 C 341.523438 45.273438 429.265625 55.621094 482.898438 33.410156 C 528.917969 64.496094 545.382812 86.828125 562.683594 124.160156 C 583.535156 109.226562 610.15625 94.011719 640.472656 86.859375 C 599.695312 142.671875 564.574219 202.898438 542.023438 270.683594 C 476.078125 256.695312 404.199219 256.664062 332.921875 259.644531 Z M 342.488281 255.421875 C 430.007812 249.355469 490.164062 252.316406 539.253906 264.425781 C 549.078125 224.0625 581.835938 160.019531 629.289062 94.074219 C 603.917969 102.417969 582.742188 117.109375 561.023438 132.375 C 541.636719 94.675781 517.386719 56.640625 482.460938 38.234375 C 461.261719 48.175781 422.457031 62.441406 298.199219 41.691406 C 360.257812 63.140625 398.195312 151.472656 416.695312 214.070312 C 392.3125 224.203125 363.351562 239.191406 342.488281 255.421875 " fill-opacity="1" fill-rule="nonzero"/></g></svg>